<?xml version="1.0" encoding="UTF-8"?><svg id="b" xmlns="http://www.w3.org/2000/svg" viewBox="0 0 123.46 90.21"><g id="c"><path d="M0,80.44c.03.15.18.23.33.2,1.88-.45,3.53-.9,5.13-1.33,1.47-.4,2.87-.78,4.33-1.13,7.52,5.93,22.45,12.04,34.55,12.04h0c9.72,0,20.44-2.86,30.23-7.9.08,0,.15-.04.2-.1,3.49-1.81,6.86-3.9,10.03-6.23.96-.71,1.93-1.51,2.9-2.37,0,0,.01-.01.02-.02,8.88-7.9,17.64-21.39,21.42-28.78,3.73-7.28,8.4-20.89,9.96-26.23,1.04-3.55,1.88-7.37,2.7-11.07.53-2.39,1.07-4.86,1.66-7.18,0,0,0-.01,0-.02,0-.01,0-.03,0-.04,0-.02,0-.04,0-.06,0-.01,0-.02-.01-.04,0-.02-.01-.04-.02-.05,0-.01-.01-.02-.02-.03-.01-.02-.03-.03-.05-.04,0,0-.01-.01-.02-.02,0,0,0,0,0,0,0,0,0,0-.01,0-.04-.02-.08-.03-.12-.03,0,0,0,0,0,0,0,0,0,0,0,0,0,0,0,0,0,0-.04,0-.09.01-.12.03-.01,0-.02.02-.03.03-.02.01-.04.03-.06.05-3.04,3.9-11.67,8.75-16.54,10.8-4.37,1.84-8.88,3.4-13.78,4.77-6.37,1.78-12.51,3.96-18.44,6.06-1.85.65-3.66,1.3-5.43,1.91-.68.23-1.39.49-2.13.77,0,0,0,0,0,0-7.07,2.66-16.63,7.2-22.4,10.68-.27.16-.53.32-.8.48,0,0,0,0,0,0-7.96,4.82-13.51,8.43-20.99,15.54-6.92,6.57-11.12,15.25-12.84,26.54-1.45.35-2.83.72-4.3,1.12-1.59.43-3.24.88-5.11,1.33-.14.03-.23.18-.2.33ZM10.45,75.93c.25.4.57.96.68,1.37-.32.08-.63.15-.95.23.08-.54.17-1.07.27-1.6ZM11.67,70.63c.36.04.76.08,1.17.14-.35.51-1.07,1.27-1.7,1.88.16-.68.34-1.35.52-2.01ZM13.94,64.25c.84.13,2.14.55,2.94.83-.08.19-.17.4-.27.62-.32.71-.67,1.51-.74,2.06-1.16-.21-2.27-.33-3.17-.35.38-1.08.8-2.13,1.25-3.15ZM15.74,60.65c.14.04.3.09.47.15.02.67-.35,2.73-.59,3.66-.56-.17-1.13-.32-1.58-.4.53-1.18,1.1-2.31,1.71-3.41ZM17.34,58.02c.55.09,1.37.25,2.26.44-.1.31-.45.9-.78,1.47-.27.46-.55.94-.7,1.27-.88-.3-1.72-.57-2.28-.75.47-.83.97-1.65,1.5-2.44ZM19.79,54.77c.39.29.85.67,1.35,1.09.3.25.61.51.92.76-.31.45-1.03,1.26-1.62,1.82-1.12-.25-2.23-.47-2.96-.6.72-1.07,1.49-2.09,2.31-3.07ZM24.26,54.67c-.13.22-.3.5-.47.8-.31.54-.66,1.14-.93,1.51-.39-.3-.8-.63-1.19-.95.01,0,.03-.01.04-.02.41-.59.9-2.14,1.05-2.74.51.42,1.05.95,1.51,1.4ZM25.77,48.81c.4.01.86,0,1.3-.02-.12.32-.53.98-1.23,1.99-.63-.16-1.31-.32-1.84-.38.6-.55,1.18-1.08,1.76-1.6ZM33.66,42.52c1.04.03,2.75.14,4.13.25-.09.51-.18,1.92-.22,2.56-1.57-.31-4.33-.9-5.63-1.36.1-.14.2-.28.29-.42.47-.35.95-.69,1.43-1.03ZM38.33,39.38c.4.95.73,2.72.6,3.26-1.31-.1-3.58-.27-4.99-.32,1.43-1.01,2.88-1.97,4.39-2.94ZM39.17,38.85c.42.12.78.26,1.1.38.31.12.6.23.88.31-.55,1.03-1.07,2.08-1.58,3.15-.12,0-.27-.02-.43-.03.13-.67-.24-2.47-.63-3.39.22-.14.44-.28.66-.42ZM48.47,34.71c1.3-.05,2.68-.15,3.41-.21-.39.97-.75,1.98-1.11,3-1.22.15-2.42.6-3.4.97-.3.12-.57.21-.81.3.18-.85,1.4-3.15,1.91-3.94.02-.04.01-.08-.01-.12ZM55,30.03c.44,1.34.2,3.13.08,4.01l-.02.14c-1.06.1-2,.26-2.66.47.59-1.5,1.22-2.94,1.89-4.28.23-.11.47-.23.7-.34ZM56.06,29.52c.72.29,1.89.52,3.15.7-.11.23-.25.51-.41.82-.49.98-1.11,2.19-1.41,3-.72.02-1.44.05-2.12.11v-.09c.13-.9.37-2.73-.09-4.13.29-.14.58-.28.87-.41ZM61.18,27.22c.66.04,1.41.05,2.14.03-.23.67-1,2.06-1.64,3.06-1.86-.2-4.14-.49-5.35-.92,1.62-.76,3.25-1.49,4.85-2.18ZM68.96,24.15c.11-.04.23-.08.34-.12.17,0,.36,0,.57,0-.24.54-.22,1.17-.21,1.79.02.7.04,1.43-.3,2.02-.17.05-.32.09-.43.11-.69.13-1.31,0-1.97-.13-.33-.07-.69-.14-1.06-.18.38-1.05.73-1.98,1.04-2.76.7-.26,1.38-.51,2.03-.73ZM76,23.22c-.33.93-.66,1.93-.98,2.97-.44.03-1.02.16-1.66.34.06-.47.05-.92.04-1.35-.01-.51-.02-1,.07-1.53,1.02-.15,1.96-.31,2.54-.44ZM80.11,20.24c.05.36.03.85-.07,1.46-.98.35-2.12.63-3.15.65.15-.4.3-.78.46-1.15.91-.32,1.83-.64,2.76-.96ZM86.19,18.2c-.03.59.02,1.22.16,2.01-1.55.16-3.51.46-4.41.69.05-.49.18-.96.39-1.42,1.28-.43,2.57-.86,3.87-1.28ZM92.09,16.4c-.21.76-.28,1.51-.21,2.4-.61.14-1.28.26-1.97.33,0,0,0,0,0,0,0,0-.02,0-.03,0-.02,0-.03,0-.05.02-.39.04-.78.07-1.17.09.24-.71.49-1.39.75-2.04.89-.27,1.78-.53,2.68-.79ZM95.31,15.46c.75-.23,1.5-.46,2.23-.7.25.44.58.82.94,1.08-.9.5-2.02,1.07-3.04,1.57-.14-.48-.26-1.27-.13-1.95ZM101.24,13.51c.07.56.06,1.6.06,2.36-.74.4-1.47.85-2.07,1.3.22-1.3.45-2.41.67-3.19.45-.16.9-.32,1.34-.48ZM104.19,12.39c.17.36.34.88.5,1.35.06.18.12.35.17.51-.3.18-.6.33-.89.42-.67.22-1.56.61-2.46,1.08,0-.8,0-1.78-.07-2.32.93-.34,1.84-.68,2.75-1.04ZM105.02,14.4s0,0,0,0c.23-.14.45-.29.68-.46.31.45,1.36,1.11,2.02,1.26.01.13.03.26.04.38-.2.15-.44.31-.69.5-.95.68-2.1,1.51-2.58,1.92-.33-.71-.71-2.37-.77-3.02.1-.04.21-.08.3-.11.32-.1.65-.27.99-.47,0,0,0,0,0,0ZM107.56,12.42c.01.81.06,1.68.15,2.55-.62-.17-1.58-.78-1.83-1.17.45-.34.89-.71,1.3-1.07.13-.11.25-.22.38-.32ZM118.44,4.83c.1.23.21.54.32.83.06.17.12.33.17.47-.14.19-.27.37-.41.56-.71.42-1.53.78-2.2,1.07-.16.07-.31.14-.45.2.52-.84,1-1.69,1.25-2.24.44-.29.88-.59,1.3-.89ZM121.66,5.64c-.06,0-.13-.02-.2-.03-.39-.06-.94-.14-1.36-.17.87-1.22,1.68-2.42,2.43-3.6-.3,1.26-.59,2.53-.87,3.81ZM119.04,16.81c-.69.2-1.69.43-2.81.64.43-1.11.63-1.6,1.1-2.49,0,0,0,0,0,0,.64-.17,1.22-.33,1.69-.45.25-.07.47-.12.65-.17-.21.83-.42,1.66-.64,2.47ZM114.97,29.28c-.4-.09-.7-.2-.93-.35.19-.41.37-.76.52-1.03.35-.06.67-.13.96-.19-.18.52-.37,1.04-.56,1.57ZM113.72,32.68c-.37-.07-.73-.2-1.11-.38.44-1.11.93-2.28,1.35-3.2.24.15.55.27.94.36-.38,1.06-.78,2.13-1.18,3.21ZM109.72,42.39c-.28-.02-.65-.05-.94-.1.08-.54.13-1.02.16-1.36.53-.07,1.04-.15,1.55-.24-.26.59-.51,1.16-.77,1.7ZM102.66,54.67c-.36-.05-.68-.1-.98-.16-.44-.08-.91-.16-1.51-.21.28-.47.52-.91.65-1.27,1.08-.07,2.11-.15,3.07-.25-.4.62-.81,1.26-1.23,1.9ZM95.39,64.62c-.77.02-2.02.18-3.09.4.32-.84.59-1.57.69-2.05,1.39-.04,2.68-.1,3.86-.19-.48.62-.97,1.23-1.46,1.84ZM87.39,73.16c-1.07.08-2.22.12-3.44.13.51-.61,1.12-1.57,1.73-2.69.86.22,1.8.74,2.8,1.55-.37.35-.73.68-1.1,1.01ZM74.44,81.77c-.58,0-1.22-.03-1.91-.08.36-.57.68-1.11.8-1.52.88-.14,2.5-1.18,3.81-2.03.64-.42,1.21-.79,1.52-.94-.08,1.01-.57,1.97-1.02,2.82-1.05.61-2.12,1.19-3.2,1.75ZM69.46,84.12c.11-.43.18-.93.2-1.22.63-.08,1.27-.33,1.83-.76.16.01.31.03.46.04-.04.07-.09.13-.13.2-.25.38-.47.71-.62.98-.58.26-1.16.52-1.74.77ZM65.63,85.64c-.37-.21-.94-.43-1.48-.57,1.02-1.33,2.17-2.85,2.67-3.53.49.08.97.15,1.44.22-.7,1.33-1.45,2.68-1.88,3.46l-.11.19c-.22.08-.44.16-.65.24ZM59.38,87.61c.25-.63.78-1.62,1.39-2.65.43.16,1.05.34,1.61.5.4.11.77.22.99.3-.27.35-.52.66-.72.91-1.09.34-2.18.66-3.26.95ZM57.42,88.09c-.78-.13-1.78-.33-2.94-.6.22-.39.41-.78.56-1.14.64.11,1.38.21,2.11.3.9.11,1.75.22,2.27.35-.12.25-.21.47-.28.66-.57.15-1.14.29-1.71.42ZM49.21,89.44c.83-.69,2.24-1.71,2.62-1.98.02-.01.02-.03.03-.05.75.19,1.46.36,2.12.52-.24.38-.49.72-.74.99-1.35.22-2.7.39-4.03.52ZM46.95,89.6c.19-.26.4-.57.61-.91.97-.09,1.8-.05,2.18.06-.34.26-.65.51-.89.72-.64.06-1.27.1-1.9.13ZM45.02,89.66c.04-.43.19-1.06.36-1.69.81.06,1.56.13,2.22.26-.31.52-.64,1.03-.91,1.38-.56.03-1.11.04-1.66.05ZM38.35,89.22c.13-.39.37-.92.79-1.64.45.07,1.18.11,1.9.16.5.03.96.06,1.27.09-.32.66-.66,1.29-.92,1.72-1-.08-2.02-.19-3.04-.33ZM29.85,87.34c.07-.12.14-.24.22-.36.35.16.9.35,1.43.53.61.21,1.23.42,1.56.59-.02.03-.04.05-.07.08-1.05-.25-2.1-.54-3.14-.84ZM28.81,87.03c-.57-.54-1.67-1.34-2.41-1.81.07-.12.15-.24.22-.36.15-.11.36-.28.62-.49.95.18,3.06.74,3.55.99-.26.46-.55.96-.85,1.45,0,0,0,0,0,0,0,0,0,0,0,0-.1.16-.19.32-.29.47-.28-.08-.56-.17-.84-.25ZM22.48,84.72c.08-.08.17-.17.25-.25.03,0,.05,0,.08-.02.03-.02.03-.05.03-.08.29-.31.58-.62.86-.95.43.37,1.28.77,2.04,1.12.24.11.46.21.65.31-.22.38-.46.76-.7,1.14-1.09-.4-2.16-.82-3.2-1.25ZM19.31,83.29c.56-.59,1.15-1.26,1.53-1.88.36.71,1.22,2.25,1.74,2.91-.1.1-.2.21-.3.31-1.01-.43-2-.88-2.96-1.34ZM17.35,82.31c.79.11,1.66.28,2.19.43-.14.16-.28.31-.42.46-.6-.29-1.19-.59-1.77-.89ZM14.37,80.65c-.14-.54-.41-1.5-.71-1.97.52-.21,1.1-.44,1.72-.68.67.26,2.23,1.19,2.88,1.6-.97.67-1.9,1.29-2.66,1.77-.42-.24-.83-.48-1.23-.72ZM10.46,78.01c.63-.15,1.27-.3,1.9-.46.1.4.13,1,.09,1.38-.17.07-.33.13-.46.18-.53-.37-1.04-.74-1.52-1.1ZM19.81,62.01c-.2.5-1.38,2.17-1.96,2.88-.33,0-.62,0-.83.01-.33-.11-.76-.26-1.22-.4.25-.92.6-2.88.6-3.65.98.32,2.3.76,3.4,1.15ZM21.86,58.98c-.48,1.09-.66,2.44-.46,3.39-.73-.28-1.92-.7-3.08-1.1.15-.32.42-.78.68-1.23.36-.62.71-1.2.81-1.53.69.15,1.4.31,2.06.47ZM23.4,57.62c-.04.2-.14.46-.24.72-.09.24-.18.49-.24.7-.65-.18-1.44-.38-2.24-.56.58-.56,1.24-1.3,1.54-1.74.41.33.81.63,1.18.88ZM24.42,54.82c.35.34.66.65.9.85-.3.76-.6,1.52-.89,2.28-.37-.13-.86-.45-1.4-.85.27-.38.63-.99.94-1.53.16-.28.32-.54.44-.75ZM28.5,48.69c-.41.79-.82,1.61-1.21,2.45-.26-.05-.62-.15-1.02-.25-.07-.02-.14-.04-.21-.05.74-1.08,1.14-1.75,1.23-2.06.47-.03.91-.06,1.21-.09ZM31.82,44.15c.71.25,1.86.55,3.03.81,0,0-.02.01-.02.02-.22.53-.77,1.5-1.31,2.44-.27.47-.55.96-.78,1.39-.87-.24-2.07-.39-3-.41,0,0,0,0,0,0,0,0,0,0,0,0-.04,0-.09,0-.13,0-.12,0-.24,0-.35,0,.83-1.56,1.69-2.99,2.56-4.26ZM38.93,42.86c.2.02.38.03.54.04-.4.85-.79,1.71-1.17,2.58-.15-.03-.32-.06-.53-.1.05-.89.14-2.17.22-2.59.34.03.66.05.93.07ZM40.73,41.53c1.14.43,1.7.63,2.95.88,0,.1,0,.22.02.34.03.49.05,1.09-.05,1.75-1.36-.5-2.88-1.01-3.77-1.2.28-.59.56-1.19.85-1.77ZM46.51,39c.27-.09.59-.21.95-.34.94-.36,2.08-.79,3.25-.95-.41,1.2-.81,2.41-1.18,3.65-.93.05-2.19.25-3.35.46,0,0-.01-.01-.02-.01,0,0-.02,0-.03,0-.03,0-.05.02-.07.04-.2.03-.39.07-.57.1-.57.1-1.07.19-1.48.25.5-.72,1.34-1.79,2.5-3.18ZM52.31,34.9c.51-.19,1.23-.34,2.06-.45.04.55-.32,1.77-.62,2.75-.1.32-.19.62-.26.88-.84,0-1.66.03-2.38.09.38-1.12.78-2.21,1.2-3.28ZM60.2,34.27c-.32.59-.81,1.25-1.28,1.89-.57.77-1.1,1.5-1.35,2.08-.69-.06-1.55-.11-2.45-.14,0,0,0,0,0,0,0,0,0,0,0,0-.46-.01-.94-.02-1.41-.02.07-.25.15-.52.24-.82.32-1.06.68-2.25.63-2.84,1.71-.2,3.85-.24,5.62-.15ZM62.54,30.62c.07,0,.14.02.21.02-.05.24-.12.52-.2.83-.23.89-.5,1.98-.49,2.76-.49-.06-1.06-.11-1.68-.15,0,0,0,0-.01,0,0,0,0,0,0,0-.63-.03-1.3-.05-2-.05-.25,0-.5,0-.75,0,.31-.8.9-1.96,1.37-2.9.17-.34.32-.64.44-.88,1.05.15,2.16.26,3.11.36ZM65.52,27.11c-.37,1.02-.79,2.2-1.23,3.5-.43-.06-1.04-.12-1.72-.2-.21-.02-.43-.05-.66-.07.66-1.04,1.44-2.45,1.63-3.09.75-.02,1.45-.07,1.98-.14ZM69.46,28.02s0,0,0,0c.39-.12.9-.29,1.46-.48-.15.68-.43,1.85-.72,2.99-.71.17-1.29.31-1.53.39-.39-.05-1.1-.18-1.85-.31-.09-.02-.17-.03-.26-.05.22-.33.41-.62.59-.9.3-.46.58-.89.98-1.45.27.01.55,0,.84-.05.13-.03.3-.07.49-.13ZM74.95,26.4c-.31,1.03-.62,2.11-.92,3.21-.64.17-1.7.42-2.74.66-.3.07-.59.14-.86.2.3-1.17.58-2.36.73-3.01,1.33-.46,2.88-.98,3.8-1.06ZM81.7,21.21c-.1,1.32-.21,3.46-.02,4.52-.83.06-1.96.24-3.08.47.27-1.12.62-3.26.35-3.96,1.08-.28,2.1-.69,2.75-1.03ZM87.76,20.31c-.29.96-.56,1.96-.8,2.98-.36.11-.81.29-1.3.5-.33-.58-.35-1.52-.36-2.28,0-.38-.01-.71-.06-.94,0-.01-.01-.02-.02-.03.97-.12,1.91-.22,2.54-.23ZM88.6,19.44c.38-.02.75-.04,1.13-.08-.27.65-1.14,1.96-1.92,2.76.25-.92.51-1.82.79-2.68ZM90.98,19.19c.66.75,1.75,2.75,1.61,3.52-1.59.33-3.66.85-5.26,1.32.12-.52.25-1.03.38-1.54.9-.81,2-2.47,2.25-3.17.35-.04.69-.09,1.02-.14ZM98.92,15.84c-.18.93-.36,2.01-.52,3.17-1.27.64-2.52,1.51-3.63,2.29-.05.03-.1.07-.15.1.15-.85.55-2.85.85-3.76,1.18-.57,2.49-1.25,3.45-1.8ZM103.54,15.05c.08.66.43,2.29.78,3.04-1.5.26-4.11,1.47-5.39,2.06l-.14.06c.12-.96.25-1.89.39-2.74,1.19-.95,3.04-1.91,4.36-2.42ZM115.67,8.28c.2-.1.45-.21.73-.33.55-.24,1.19-.52,1.8-.84-1.19,1.6-2.46,3.22-3.81,4.85-.14-.42-.24-.96-.31-1.52.39-.4,1-1.25,1.58-2.16ZM113.14,17.96c.27-.57.5-1.19.71-1.91,0-.02,0-.04,0-.06,1.08-.35,2.21-.67,3.21-.95-.43.82-.63,1.33-1.07,2.46-.91.17-1.89.33-2.85.46ZM110.98,23.74c-.77-.31-1.41-.47-1.94-.5.86-1.65,1.7-3.55,1.84-4.53.89-.04,1.88-.15,2.88-.29-.49,1.24-2.27,4.71-2.78,5.32ZM115.74,27.11c-.65.15-1.51.31-2.51.47.31-.44.56-.88.77-1.32.75-.04,1.38.11,1.84.22.04,0,.07.02.1.02-.07.2-.14.4-.21.61ZM112.42,32.22s-.09-.04-.14-.06c-.01,0-.03-.01-.05-.01-.01,0-.02,0-.03,0-.84.3-2.57.76-3.54.98.94-1.72,1.88-3.57,2.41-4.7,1.2-.16,2.3-.32,3.23-.49-.51.92-1.23,2.66-1.88,4.28ZM110.15,38.3c-.73-.61-2.58-1.69-3.57-1.73.52-.69,1.23-1.88,1.96-3.19.91-.2,2.78-.69,3.7-1.01.04.02.07.03.11.05-.21.53-.41,1.04-.59,1.5-.29.73-.51,1.3-.65,1.61-.31.72-.66,1.75-.96,2.78ZM105.97,40.72c1.27-.64,3.21-1.33,3.94-1.51-.09.37-.17.73-.22,1.06-1.2.19-2.45.33-3.72.45ZM106.87,47.85c-.81,1.1-1.73,2.47-2.23,3.59-.63-.13-1.69-.17-2.71-.17-.4,0-.8,0-1.16.01.66-1.45,1.26-3.45,1.48-4.7,1.16.27,3.92.4,5.09.43-.15.27-.31.55-.47.84ZM104.26,52.19c-1.07.12-2.21.22-3.4.3,0,0,0,0,0,0,0,0,0,0-.01,0,0,0-.01,0-.02,0-.25.02-.49.03-.74.04.2-.27.4-.62.59-1.04,1.26-.03,3-.04,3.89.14-.03.07-.06.14-.08.21-.07.11-.14.22-.21.34ZM98.74,56.1c-.72,0-2,0-3.29.02.1-.2.21-.4.31-.6.45-.87.92-1.77,1.23-2.33,1.25-.03,2.46-.08,3.61-.15-.32.81-1.14,2.02-1.86,3.06ZM97.04,59.6c-.67.21-1.22.35-1.8.5-.4.1-.81.21-1.28.34,0-.06.01-.11.02-.17.08-.75.15-1.47.19-1.81.18-.26.64-1.12,1.17-2.14,1.25-.02,2.52-.03,3.26-.02-.48.69-.89,1.29-1.05,1.63-.18.38-.36.99-.51,1.67ZM96.52,62.27c-.89.07-1.81.12-2.77.16.05-.43.12-1.08.19-1.76.49-.14.93-.25,1.35-.36.55-.14,1.08-.28,1.7-.47-.17.76-.31,1.58-.43,2.23-.01.07-.02.13-.04.2ZM92.35,64.32c-.93-.12-2.64-.39-3.65-.75.05-.21.08-.4.1-.57,1.39.01,2.72,0,3.99-.02-.08.34-.24.8-.44,1.34ZM88.02,65.08c-1,.15-2.45.68-3.74,1.15-.53.19-1.03.38-1.46.52.53-.51,1.13-1.12,1.64-1.79,0,0,0,0,0,0,0,0,0,0,0,0,.49-.64.89-1.33,1.05-2.02,1.04.03,2.07.06,3.07.07-.05.5-.26,1.23-.57,2.08ZM83.68,73.29c-1.16,0-2.36-.02-3.61-.07.35-.68.74-1.56,1.12-2.49.3.03.65.06,1.03.09,1.04.08,2.32.19,2.87.41-.51.87-1.01,1.6-1.42,2.06ZM78.71,76.95c-.3.1-.91.5-1.69,1.01-1.14.74-2.66,1.72-3.54,1.96.7-1.01,2.49-3.72,3.48-5.47.63.36,1.62.79,2.96,1.26-.18.19-.36.37-.53.54-.25.25-.49.49-.68.71ZM68.1,82.5c.13-.24.26-.48.38-.72.95.13,1.86.24,2.71.33-1.02.69-2.33.77-3.09.39ZM68.74,81.28c.3-.59.57-1.13.8-1.61,1.19.02,2.73.23,3.56.48-.13.4-.46.95-.82,1.52-1.07-.08-2.26-.22-3.54-.39ZM63.5,85.57c-.21-.08-.61-.19-1.06-.32-.54-.16-1.14-.33-1.56-.48.93-1.57,2-3.2,2.53-3.83,1.1.21,2.16.39,3.19.56-.61.84-2.02,2.69-3.09,4.07ZM59.51,86.82c-.53-.14-1.4-.25-2.34-.37-.69-.09-1.39-.18-2.01-.28.38-.49,1.15-1.56,1.93-2.69,1.07.35,2.9.78,3.83.8-.1.17-.2.33-.3.5,0,0,0,0,0,0,0,0,0,0,0,0-.43.73-.82,1.44-1.11,2.03ZM49.94,88.6c-.25-.11-.75-.17-1.36-.17-.28,0-.58.02-.88.04.24-.4.47-.8.67-1.14.17-.29.3-.53.4-.68,0-.02,0-.03,0-.05.99.27,1.95.53,2.85.76-.32.23-1.02.74-1.68,1.24ZM36.44,85.18c.21.13.84.42,1.5.72.62.29,1.26.58,1.53.73-.37.58-.65,1.06-.86,1.47-.62-.12-3.45-.6-4.58-.72.39-.38.82-.78,1.26-1.2.38-.35.76-.71,1.11-1.05,0,.02.02.03.03.05ZM33.2,87.95c-.33-.18-.96-.4-1.64-.63-.52-.18-1.05-.36-1.39-.51.6-1.01,1.18-2.02,1.54-2.7.55.82,1.93,1.72,3.08,2.27-.61.57-1.17,1.11-1.59,1.57ZM26.52,84.66c-.2-.1-.44-.21-.7-.33-.71-.33-1.58-.73-1.99-1.08.48-.56.93-1.14,1.32-1.71.62-.23,1.33-.72,2.01-1.25.37.57,1.28,1.81,1.8,2.3-.97.88-1.99,1.75-2.44,2.08ZM22.72,84.17c-.51-.66-1.39-2.25-1.74-2.93.35-.21.87-.62,1.45-1.1.55.2,1.9.9,2.51,1.34-.63.91-1.4,1.84-2.22,2.7ZM18.38,80.37c-.24-.05-.46-.1-.66-.16.25-.17.5-.34.76-.52.03,0,.05-.02.07-.04,0,0,0,0,0,0,.9-.62,1.83-1.27,2.69-1.88.2.17.47.38.77.6.42.32.88.67,1.12.9-.88.78-1.8,1.54-2.29,1.82-.87-.36-1.71-.55-2.45-.72ZM18.38,68.49c.79-.26,1.54-.26,2.48-.26.12,0,.24,0,.37,0-.25,1.03-.47,2.02-.65,2.96-.52-.05-1.29-.1-2.1-.14,0,0,0,0,0,0h0s0,0,0,0c-.31-.01-.62-.03-.92-.04.28-.58.69-1.85.83-2.53ZM21.43,62.61c-.16,1.2-.2,2.02-.12,2.44-.97-.08-2.22-.13-3.19-.14.59-.74,1.68-2.3,1.89-2.81.58.2,1.08.39,1.42.52ZM23.85,59.55c-.3.86-.59,1.71-.87,2.56-.45.04-.94.17-1.36.29-.22-.92-.04-2.28.45-3.37.73.18,1.36.36,1.78.52ZM24.36,58.15c-.15.4-.3.81-.44,1.21-.22-.08-.49-.17-.8-.26.05-.21.14-.45.23-.69.09-.24.18-.47.23-.67.29.18.55.32.77.4ZM29.14,48.63c.16-.01.33-.02.52-.02.37.95.01,3.09-.14,3.77-.86.02-1.62,0-2.2-.04.58-1.28,1.19-2.53,1.81-3.71ZM29.89,48.62c.92.03,2.07.18,2.87.41,0,0,.02,0,.03,0h.12c.22,0,.47,0,.73.01-.05.83-.61,2.21-1.15,3.2-.91.05-1.87.1-2.75.12.15-.72.47-2.75.14-3.76ZM36.78,49.21c-.36.94-.7,1.88-1.03,2.81-.73.07-1.82.15-3.02.23.53-1,1.07-2.35,1.11-3.19,1.01.02,2.23.06,2.94.15ZM39.79,43.49c.78.16,2.11.59,3.37,1.05-.28.4-.57.96-.88,1.56-.35.69-.72,1.41-1.12,1.97-1.19-.26-2.26-.57-3.01-.85.52-1.26,1.06-2.5,1.64-3.73ZM43.91,42.74c0-.12-.01-.22-.01-.32.43-.06.98-.16,1.63-.27.16-.03.32-.06.48-.09-.06.41-.03.9.01,1.42.06.72.12,1.46-.14,1.93-.47-.21-1.21-.51-2.03-.82.12-.71.09-1.36.06-1.84ZM49.46,41.57c-.38,1.27-.74,2.55-1.08,3.83-.2-.03-.37-.06-.51-.08-.59-.1-.85-.14-1.75.06.22-.52.16-1.23.11-1.93-.05-.53-.08-1.04,0-1.44,1.12-.2,2.33-.39,3.24-.45ZM51.04,38.39c1.15-.1,2.59-.12,3.94-.08-.19.68-.67,1.52-1.11,2.26-.31.53-.61,1.04-.76,1.43-.96-.19-2.2-.16-3.19-.08.35-1.19.73-2.37,1.12-3.53ZM57.54,38.45c.02.24.05.51.09.78.1.69.2,1.46.01,2.04-.6.08-1.2.18-1.77.28-.02,0-.03-.02-.05-.02h0s-.06.02-.08.04c-.38.06-.74.13-1.08.19-.51.09-.96.17-1.32.22.16-.37.42-.82.71-1.31.45-.77.96-1.64,1.15-2.36.86.03,1.68.07,2.35.14ZM62.96,34.59c-.29.89-.58,1.81-.88,2.75-.2-.02-.41-.04-.61-.04-.26,0-.52.02-.78.05,0,0,0,0,0,0,0,0,0,0-.01,0,0,0,0,0-.01,0-.98.12-1.92.44-2.83.8.27-.53.75-1.19,1.25-1.87.5-.68,1.01-1.38,1.34-2,1.04.06,1.94.16,2.53.3ZM62.75,31.52c.08-.32.16-.62.21-.86.49.05.93.1,1.26.15-.38,1.12-.78,2.33-1.2,3.59-.21-.05-.47-.1-.75-.14-.02-.75.26-1.84.49-2.73ZM66.79,30.81c.7.12,1.36.24,1.77.3-.1.54-.37,1.41-.71,2.38-1.49.04-2.87.16-4.09.37.39-1.18.77-2.31,1.13-3.37.45.06,1.18.19,1.89.32ZM74.94,28.37c.32.91.77,2.6.65,3.72-.68.15-1.26.24-1.71.25.34-1.36.7-2.69,1.06-3.97ZM81.8,25.92s0,0,.01,0c0,0,0,0,0,0,0,0,0,0,0,0,0,0,.02,0,.02,0,.38-.21.94-.5,1.56-.81.01.26.05.57.1.94.12.91.27,2.03-.03,2.73,0,.02,0,.04,0,.06-.47.22-.96.46-1.44.7,0-.06-.05-.1-.1-.1h0c-.06,0-.1.05-.1.11,0,.03,0,.06,0,.09-.07.03-.14.07-.21.1-.87.43-1.69.83-2.41,1.15.24-1.39.47-3.94.48-4.68.79-.14,1.54-.24,2.12-.27ZM86.9,23.53c-.33,1.38-.62,2.8-.87,4.22-.69.23-1.49.57-2.31.96.25-.75.12-1.83,0-2.71-.05-.41-.1-.75-.1-1.01,1.15-.57,2.46-1.19,3.29-1.47ZM104.42,18.28c.37.68.58,1.23.64,1.7-1.11.62-2.15,1.26-2.69,1.7-.32.26-.73.54-1.17.82.23-1.04.8-2.97,1.09-3.59.79-.3,1.55-.54,2.12-.63ZM111.7,13.2c.21.12.63.5.86.95-.51.6-1.03,1.2-1.56,1.8.1-.74.14-1.52.14-2.28.18-.16.37-.32.56-.47ZM114.24,12.15c-.5.61-1.02,1.22-1.54,1.83-.22-.4-.57-.75-.82-.92.53-.41,1.07-.79,1.54-1.12.23-.16.44-.31.63-.45.05.24.11.46.19.65ZM110.93,16.85c.76-.85,1.5-1.71,2.22-2.56.53.21,1.23.59,1.48.77-.07.18-.15.36-.23.53-1.26.39-2.5.82-3.48,1.25ZM109.74,18.19c.28-.32.57-.63.85-.95.82-.4,1.9-.8,3.05-1.18-.22.74-.46,1.36-.74,1.93-1.16.14-2.26.22-3.16.2ZM108.95,23.44c.52.02,1.16.18,1.95.5-.07.68-.31,1.47-.58,2.23-.65.3-2.62.74-3.69.99l-.14.03c.25-.36.53-.73.87-1.13.36-.44.97-1.45,1.58-2.61,0,0,0,0,.01,0ZM108.25,33.43s.01,0,.02,0c-.74,1.33-1.46,2.53-1.96,3.15-.51.09-1.73.43-2.81.73-.43.12-.82.23-1.12.31,1.1-1.45,2.14-2.86,2.38-3.42.18-.43.53-1.2.9-2.03.68-.08,2.62,0,3.27.05-.17.32-.35.65-.53.97-.07.01-.13.03-.19.04-.06.01-.09.06-.08.12.01.06.06.09.12.08ZM109.97,38.98c-.73.15-3.23,1.05-4.52,1.78-.19.02-.38.03-.56.04.52-1.16.99-2.39,1.55-4.03.86-.08,2.91,1.08,3.65,1.74-.04.15-.08.31-.12.46ZM98.43,45.84c-1.02-.34-2-.46-2.99-.34.87-1.65,1.65-3.2,1.92-3.96,1.17.02,2.37.02,3.56,0-.5,1.01-1.47,2.68-2.5,4.31ZM99.81,52.55c-.85.04-1.73.08-2.62.1,0,0,0-.01-.01-.02-.02-.01-.04-.02-.05-.02-.03,0-.05.01-.07.03-1.02.03-2.06.04-3.1.04.51-.9,1.17-1.85,1.73-2.53.78.02,2.05-.11,3.17-.22.97-.1,1.89-.19,2.29-.17-.41,1.15-.89,2.23-1.34,2.76ZM94.02,58.32c-.56-.05-1.52-.03-2.59.01.23-.65.42-1.29.55-1.86.59-.07,1.82-.12,3.12-.15-.48.92-.9,1.72-1.08,1.99ZM85.17,62.41c.12-.39.26-.8.39-1.2.26-.79.53-1.6.69-2.23.95-.14,3.04-.33,4.89-.42-.53,1.47-1.22,2.97-1.72,3.94-1.39,0-2.81-.03-4.25-.09ZM81.77,66.54c-.63-.31-1.28-.62-1.95-.69.78-1.18,1.45-2.32,1.63-3.1.16,0,.32.02.47.03.44.76,1.29,1.68,2.3,2.17-.57.72-1.25,1.37-1.79,1.9-.21-.09-.43-.2-.66-.31ZM76.52,74.8c-1.09-.1-2.98-.45-3.83-.8.13-.29.24-.56.32-.79,1.42.16,2.82.29,4.19.39-.16.33-.4.75-.67,1.21ZM69.64,79.47c.3-.64.49-1.14.54-1.43.43-.03,1.1-.14,1.81-.27,1.05-.18,2.21-.39,2.9-.35-.69,1.07-1.34,2.04-1.69,2.54-.82-.25-2.35-.46-3.56-.49ZM69.21,79.9c-.96.04-2.52.33-4.26.78-.29-.05-.59-.11-.89-.16.67-1.08,1.69-2.56,2.72-4,.27.13.65.29,1.07.46.81.34,1.72.71,2.14,1.01-.05.33-.35,1.04-.78,1.91ZM61.06,84.07c-.83.03-2.74-.41-3.83-.77.48-.69.95-1.37,1.34-1.95.31.2.87.54,1.41.86.71.43,1.44.87,1.61,1-.18.28-.35.57-.53.85ZM55.67,85.15c-.7-.45-2.12-.75-3.46-.99,1.09-1.11,2.28-2.28,3.23-3.19.7.32,1.49,1.14,1.92,1.81-.58.84-1.19,1.71-1.68,2.38ZM49.88,86.35c-.82-.22-1.68-.46-2.55-.71.41-.47.77-.92,1.09-1.35,1.01.01,2.05.52,2.6.8-.43.46-.82.88-1.14,1.25ZM43.59,84.09c-.62-.85-1.24-1.61-1.98-1.9.65-.61,1.22-1.06,1.71-1.36.06.06.11.13.17.19.45.49.87.96,1.24,1.69-.41.49-.8.96-1.15,1.38ZM40.69,82.82c-.58-.58-1.65-1.48-2.27-1.98.31-.36.63-.75.95-1.13.93.04,1.86.38,2.69.69.38.14.72.27,1.02.35-.68.43-1.46,1.11-2.39,2.07ZM36.09,81.98s-.06-.07-.1-.11c-.73-.78-1.93-2.06-2.8-2.66.44-.28.91-.56,1.39-.86.19-.12.38-.24.57-.35.39.7,1.44,1.83,2.14,2.58.23.24.42.46.55.6-.35.4-.68.76-.98,1.07-.26-.09-.52-.19-.78-.29ZM31.73,83.78c-.53-.44-1.54-1.28-1.85-1.75.57-.53,1.05-1.01,1.3-1.3.04-.04.03-.11-.01-.15-.02-.02-.04-.02-.07-.02-.03,0-.06.01-.08.04-.25.29-.74.77-1.31,1.3-.01,0-.03,0-.04,0-.03.02-.04.04-.05.07-.17.15-.33.31-.51.47-.51-.47-1.44-1.73-1.79-2.29.19-.15.37-.3.56-.44.17-.14.34-.27.5-.4,2.27,1.1,4.85,2.16,7.52,3.16-.6.29-1.81.63-2.75.88-.61.17-1.14.31-1.43.42ZM27.13,80.04s0,0,0,0c-.69.54-1.41,1.06-2.03,1.29-.58-.41-1.86-1.09-2.49-1.35.24-.21.49-.42.73-.64,0,0,0,0,0,0,0,0,0,0,0,0,.75-.67,1.46-1.33,1.85-1.72.91.53,1.91,1.06,2.98,1.59-.14.11-.27.22-.42.34-.2.16-.41.33-.62.49,0,0,0,0,0,0ZM22.13,78.2c-.27-.21-.53-.4-.72-.56.67-.47,1.28-.91,1.8-1.29.54.39,1.14.77,1.78,1.16-.38.38-1.03.99-1.72,1.61-.24-.24-.7-.59-1.15-.93ZM20.2,78.25c-.22-.44-.66-1.44-.7-1.93,1-.41,1.85-.77,2.39-1.02.34.31.73.62,1.15.93-.79.57-1.79,1.28-2.84,2.02ZM21.96,67.53s.04.02.07.01c.46-.04,1.04-.06,1.68-.08-.26.69-1.36,1.96-2.17,2.91-.11.13-.22.25-.31.37.21-1.02.46-2.1.74-3.21ZM21.53,65.06c-.09-.36-.05-1.22.11-2.44.38-.11.85-.24,1.27-.29-.3.94-.58,1.87-.85,2.79-.16-.02-.34-.04-.54-.06ZM24.19,60.21c.37.06.87.18,1.44.32.33.08.68.17,1.03.25-.02.19-.03.44-.03.72-.01.69-.03,1.54-.29,1.98,0,0,0,0,0,0-1.17-.17-2.25-.29-3-.29-.05,0-.09,0-.13,0,.31-.99.64-1.99.99-2.99ZM31.31,58.52s0,0,0,0c.01,0,.03,0,.04,0,.99,0,1.84.02,2.34.08-.27.98-.51,1.94-.73,2.89-.88-.38-1.96-.62-2.6-.64-.03-.16-.07-.32-.1-.48-.11-.58-.22-1.17-.56-1.82.55,0,1.1-.01,1.6-.01ZM32.39,55.44c.77-.12,1.67-.27,2.32-.29-.34,1.1-.66,2.18-.96,3.25-.49-.06-1.3-.08-2.25-.08.06-.16.12-.33.19-.52.31-.85.65-1.81.7-2.36ZM34,53.66c-.05-.48-.09-.92-.14-1.29.79-.06,1.45-.11,1.82-.14-.32.91-.62,1.81-.9,2.71-.19,0-.41.02-.64.04-.05-.4-.1-.86-.14-1.32ZM36.53,51.42c.13,0,.27,0,.42-.01.27.76.25,3.14.07,3.97-.62-.15-1.24-.29-1.7-.38.37-1.18.78-2.37,1.21-3.57ZM43.06,48.64c-.05.47-.29,1.85-.52,2.55-.78-.01-1.57-.01-2.32-.01-.27,0-.52,0-.78,0,0-.57-.2-1.91-.34-2.82-.04-.26-.07-.47-.09-.62,1.13.34,2.59.68,4.04.9ZM45.91,47.79c.08-.78.17-1.65.12-2.18.97-.23,1.19-.19,1.8-.09.14.02.3.05.49.08-.26.99-.51,1.97-.74,2.95-.2.05-.42.08-.66.1,0,0-.01,0-.02,0,0,0-.02,0-.03.01-.32.03-.67.04-1.05.04.02-.25.05-.57.09-.91ZM49.85,42.13c.96-.08,2.19-.11,3.15.06-.89,1.3-1.04,2.79-1.06,4.1-1.25.16-2.51.4-3.41.7.41-1.62.85-3.25,1.33-4.86ZM55.71,41.79c0,.33.01.68.03,1.05.04,1.09.09,2.33-.15,3.3-.6-.08-1.55-.06-2.6.03,0,0,0,0,0,0,0,0,0,0,0,0-.27.02-.55.05-.84.09.02-1.3.18-2.78,1.09-4.05.38-.06.88-.14,1.46-.25.32-.06.66-.12,1.02-.18ZM57.83,39.21c-.04-.28-.07-.54-.09-.78.9-.37,1.84-.7,2.82-.84-.08.94.29,2.12.6,2.78-.07.23-.14.47-.21.7-.17-.02-.35-.03-.56-.03-.71,0-1.6.09-2.52.21.16-.61.06-1.37-.03-2.04ZM62.02,37.55c-.26.82-.51,1.66-.77,2.5-.28-.66-.56-1.68-.47-2.49.41-.05.82-.05,1.24-.01ZM63.69,34.08c1.21-.21,2.6-.34,4.09-.38-.56,1.61-1.27,3.39-1.64,4.17-.74-.02-1.6,0-2.51.01-.39,0-.77.02-1.16.02.41-1.31.82-2.59,1.22-3.83ZM69.34,33.69c.18.58.31,1.23.43,1.9.06.32.12.64.19.95-.32.11-.65.23-.98.35,0,0,0,0,0,0,0,0,0,0,0,0,0,0-.01,0-.02,0-.15.05-.3.11-.45.16-.8.28-1.56.55-2.11.74.4-.88,1.07-2.57,1.6-4.1.44-.01.89-.01,1.34,0ZM77.46,34.11c.24-.1.66-.28,1.19-.49-.13.74-.46,2.49-.78,3.43,0,0,0,.01,0,.02-.39.21-.71.38-.91.51-.51.32-1.12.62-1.82.91-.16-.59-.55-1.56-.7-1.91,1.01-.65,2.02-1.48,3.01-2.46ZM82.03,32.33c.05.23.11.57.19.97.09.47.19.99.29,1.51-1.51.71-3.21,1.53-4.37,2.13.39-1.25.74-3.37.75-3.41.89-.35,2.03-.79,3.14-1.2ZM82.17,30.59c-.05-.26-.1-.54-.13-.84,1.39-.68,2.79-1.36,3.94-1.76-.18,1.01-.34,2.01-.48,3.01-.75.17-1.98.58-3.27,1.04.1-.54.02-.99-.07-1.45ZM88.59,27.98s0,0,0,0c.3-.18.61-.37.92-.57,0,.12,0,.25,0,.4,0,.83.02,2.22-.15,3.16-.73.39-1.49.76-2.22,1.12-.47.23-.91.45-1.32.66.14-1.13.3-2.29.49-3.46.55-.27,1.36-.75,2.28-1.31ZM92.96,28.89c.44-.2,1.2-.57,2.04-1.02.28.57.59,1.81.64,2.56-.28.16-.57.32-.86.49-1.24.71-2.52,1.44-3.25,1.81v-.03c.14-.72.42-2.2.35-2.97.41-.28.78-.56,1.09-.85ZM97.74,26.15c-.04,1.1-.05,2.16-.01,3.12-.48.25-1.15.62-1.89,1.05-.06-.74-.35-1.94-.65-2.55.9-.49,1.86-1.07,2.56-1.62ZM101.11,22.81s0,0,0,0c.46-.29.88-.58,1.23-.85.05.74.4,1.85.7,2.54-.09.09-.18.18-.27.27-1.07.47-2.08,1.16-2.96,1.79-.28-.55-.83-1.03-1.23-1.38-.09-.08-.17-.15-.24-.21.01-.22.03-.44.04-.66.77-.36,1.8-.92,2.72-1.5ZM105.81,27.88c-.57-.34-1.52-.75-2.5-.86.24-.39.49-.81.72-1.25.09.01.18.02.27.03,1.02.13,2.16.28,2.77.29-.51.63-.9,1.16-1.25,1.79ZM105.25,32.56c-.61-.09-2-.65-2.69-1.07.6-1.02,1.19-1.95,1.62-2.44.9-.04,1.82-.1,2.74-.17-.13.28-.29.65-.49,1.07-.37.8-.81,1.78-1.19,2.61ZM105.07,39.84c-.95.19-3.6.56-4.78.51.37-.49.8-1.06,1.26-1.66.2-.26.41-.53.61-.8.31-.08.81-.22,1.38-.37.94-.26,2.09-.58,2.66-.7-.41,1.18-.77,2.14-1.13,3.03ZM95.91,40.96c.23-.32.46-.64.68-.96.23-.33.46-.65.69-.97,1.16-.09,2.91-.11,3.8-.06-.61.8-1.17,1.54-1.52,2.04-1.23,0-2.45,0-3.65-.05ZM93.73,52.67s0,.02,0,.03c-1.35,0-2.71-.02-4.07-.05.72-.68,1.49-1.12,2.48-1.58.26.12.46.34.69.6.26.3.56.62.99.84-.03.05-.06.1-.09.15ZM91.86,56.24c-.59-.29-1.26-.55-1.92-.8-.31-.12-.62-.24-.92-.36.51-.74.98-1.41,1.29-1.89.96.02,1.92.03,2.87.04-.16.38-.31.75-.45,1.11-.3.77-.56,1.44-.86,1.9ZM80.4,62.16c.15-.25.33-.54.52-.87,1.34-.32,3.65-.49,4.57-.55-.04.13-.09.27-.13.4-.14.42-.28.85-.41,1.26-1.51-.06-3.04-.14-4.55-.24ZM76.56,62.41s-.03,0-.04,0c-.04,0-.08.02-.09.06-.28.62-.56,1.11-.86,1.54-.61-.21-1.78-1.13-2.35-1.94,2.6.29,5.32.51,8.02.67-.13.52-.49,1.23-.95,2,.03-.05.02-.11-.03-.14-.62-.41-2.95-.91-4.14-1.06.17-.29.34-.62.5-.98.02-.05,0-.11-.05-.14ZM70.21,72.09c-.69-.54-2.79-1.64-3.95-2,.24-.3.48-.62.73-.95,1.77-.16,4.19.18,5.1.33-.63,1.02-1.31,2-1.87,2.62ZM72.46,74s0,0,0,0c0,0,0,0,0,0-.6,1.33-1.63,3.06-2.37,3.8-.45-.3-1.36-.68-2.17-1.02-.4-.16-.76-.32-1.02-.44.16-.22.31-.44.47-.65,0,0,0,0,0,0,.83-1.15,1.62-2.2,2.17-2.93,1.09.15,2.18.29,3.26.41-.08.24-.2.52-.33.82ZM64.04,80.14s0,0,0,0c-.07-.05-.18-.13-.32-.23-.48-.34-1.26-.9-1.86-1.15.72-.9,1.49-1.92,2.18-2.9,0,0,0,0,0,0,.67.07,2.18-.02,3.01-.1-1.09,1.51-2.24,3.15-3.01,4.38ZM55.36,78.67c.74-.58,2.15-1.78,3.56-3.08,0,.01.01.03.03.04.57.32,1.92,1.16,2.81,1.72.26.16.48.3.64.4-.26.34-.52.66-.77.98,0,0,0,0,0,0-.33.41-.65.79-.95,1.13-1.74-.36-3.52-.76-5.31-1.19ZM57.47,82.59c-.43-.65-1.19-1.43-1.88-1.78.33-.32.63-.61.87-.84.16-.15.3-.29.41-.4.76.18,1.52.35,2.27.51-.27.45-.94,1.44-1.67,2.5ZM53.32,82.74c-.5-.46-1.39-.96-2.12-1.36l-.26-.14c.96-.93,2.05-2.02,2.48-2.5,1.07.27,2.14.53,3.21.78-.09.09-.2.19-.31.3-.7.67-1.83,1.77-3,2.93ZM49.27,82.53c-.58-.39-1.95-1.17-2.88-1.52,1.17-1.46,2.24-2.84,2.61-3.45,1.38.39,2.78.76,4.2,1.12-.8.88-3.26,3.27-3.93,3.85ZM44.88,82.54c-.37-.71-.79-1.17-1.23-1.66-.06-.06-.11-.13-.17-.19.21-.31.52-1.04.8-1.86,0,0,0,0,0,0,0,0,0,0,0,0,.15-.44.3-.9.42-1.34.05.04.11.09.18.14.62.5,1.74,1.4,2.62,1.65-.4.52-.86,1.09-1.33,1.68-.02.01-.04.03-.05.06,0,0,0,0,0,0-.41.51-.83,1.02-1.23,1.51ZM42.13,80.21c-.79-.3-1.69-.63-2.6-.69.8-.97,1.58-1.96,2.17-2.74.35.54,1.65,1.7,2.34,2.07-.27.78-.56,1.47-.76,1.75-.33-.07-.71-.22-1.16-.38ZM34.46,78.18c-.35.22-.7.43-1.03.64-.2-.14-.54-.4-.94-.7-.68-.51-1.5-1.13-1.99-1.46.24-.12.48-.24.72-.36,0,0,0,0,0,0,0,0,0,0,0,0,.43-.21.85-.42,1.27-.63.88.46,2.38,1.32,3.07,1.83-.37.23-.74.46-1.1.68ZM27.62,78.35c1.87-.03,3.8.7,4.62,1.21-.31.19-.59.37-.85.54-1.34-.57-2.6-1.16-3.77-1.76ZM24.11,76.33c.56-.2,1.47-.54,2.52-.95.46.68.91,1.87,1.06,2.4-.14.07-.29.14-.42.2l-.19.09c-1.1-.58-2.1-1.16-2.97-1.74ZM23.59,73.94c-.04-.78-.42-1.98-.65-2.49.98-.1,2.15-.18,3.32-.26.12.55.13,1.38,0,1.94-.88.27-1.76.55-2.66.81ZM21.14,71.16c.16-.19.35-.41.56-.65.9-1.04,2.01-2.33,2.23-3.05.61-.02,1.26-.03,1.94-.03-.17.77-.68,2.87-.89,3.65-.78.06-1.53.12-2.19.19,0,0,0,0,0,0,0,0,0,0,0,0-.7.07-1.29.16-1.71.25.02-.12.04-.23.07-.35ZM26.8,63.76c.06.26.09.67.13,1.15.06.8.13,1.69.34,2.29-.91,0-1.83.01-2.68.03.32-1.12.45-2.78.38-3.72.57.06,1.19.15,1.83.25ZM30.35,61.05c.37.01.9.11,1.45.26-.1.69.37,1.82.68,2.39-.05.27-.11.54-.16.8-.4-.06-.97-.16-1.65-.29-.16-.03-.32-.06-.49-.09,0,0,0,0-.01,0,0,0-.01,0-.02,0,0,0,0,0,0,0-.42-.07-.86-.15-1.32-.23.57-.77.9-1.49,1.19-2.13.11-.25.22-.48.33-.7ZM35.26,55.2c.48.1,1.15.25,1.81.41,0,0,0,0,0,0,0,0,0,0,0,0,.61.15,1.21.31,1.66.46.04.62.01,1.87-.02,2.49-.3.03-.6.06-.88.08-1.52.15-2.87.27-3.66.31.33-1.23.7-2.48,1.1-3.75ZM44.26,51.43c-.01.16-.03.37-.05.61-.08.95-.19,2.39-.27,3.01,0,.03,0,.06.02.08-.63.06-1.26.13-1.86.21,0,0,0,0,0,0,0,0,0,0,0,0-1.26.17-2.39.36-3.06.5.53-.97,1.64-3.66,1.79-4.46,1.15,0,2.34.02,3.43.05ZM47.53,48.78c-.2.86-.4,1.72-.59,2.57-.37-.03-.78-.05-1.24-.07.1-.2.22-.46.35-.73.29-.61.61-1.3.89-1.68.21-.02.4-.05.58-.09ZM48.46,47.23c.78-.27,1.88-.51,3.01-.67-.07.4-.11.9-.15,1.44-.09,1.21-.2,2.57-.67,3.5-.36.09-.7.18-1.04.26.05-.86-.63-2.04-1.14-2.92-.11-.18-.2-.34-.28-.49.09-.37.18-.75.28-1.12ZM52.03,46.49s0,0,0,0h0s0,0,0,0c.28-.03.56-.06.83-.09-.05.6.11,1.82.26,2.91.08.61.16,1.19.18,1.53-.68.17-1.38.34-2.08.52-.11.03-.21.05-.32.08.43-.96.53-2.26.62-3.42.04-.56.09-1.09.16-1.49.11-.02.23-.03.34-.05ZM55.61,46.36c.34.8.47,3.06.51,3.81-.8.18-1.69.4-2.6.62-.03-.36-.1-.92-.18-1.51-.14-1.06-.31-2.35-.25-2.9,1.03-.09,1.96-.1,2.52-.02ZM59.73,45.31c-.25.91-.49,1.82-.72,2.71-.51-.83-.92-1.98-.92-2.5.48-.1,1.03-.18,1.64-.22ZM59.2,41.32s0,0,0-.01c.65-.06,1.23-.08,1.69-.04-.38,1.27-.75,2.56-1.1,3.83-.37.02-.72.05-1.04.1.27-1.08.64-3.18.45-3.88ZM62.41,38.12c.4,0,.81-.01,1.22-.02.16,0,.31,0,.46,0-.43,1.12-1.37,2.93-2.05,4.03-.34.08-.65.15-.91.22.41-1.42.84-2.83,1.26-4.21ZM66.12,38.08c.23.85.4,1.92.48,3.04-1.52.31-3.07.65-4.27.93.68-1.15,1.59-2.9,1.99-3.97.65-.01,1.25-.02,1.8,0ZM68.9,37.14c.03.39.11.9.2,1.5.09.61.19,1.29.26,1.95-.78.14-1.65.31-2.55.49-.09-1.12-.26-2.18-.48-3.03.57-.19,1.39-.48,2.26-.79.1-.04.21-.07.32-.11ZM69.49,40.84s.07-.04.08-.08c.79-.14,1.46-.24,1.93-.28-.09.44-.17.88-.26,1.32-.59.23-1.34.57-2.07.92-.76.36-1.49.7-1.88.83-.15.01-.32.03-.48.04.07-.15.15-.32.24-.5.37-.77.8-1.64.86-2.01,0,0,0,0,0,0,.52-.1,1.02-.2,1.49-.28.02.03.05.05.09.05ZM75.1,38.73s0,0,0,0c0,0,0,0,0,0,.76-.3,1.42-.63,1.97-.97.38-.24,1.16-.65,2.11-1.12.22.71.18,1.52.13,2.38-.01.2-.02.4-.03.59-.88.24-2.06.67-3.35,1.16,0,0,0,0,0,0,0,0,0,0,0,0-.53.2-1.08.42-1.64.63.28-.96.38-1.57.29-2.49.18-.06.35-.13.51-.19ZM87.22,32.28c.06.15.12.33.2.54.27.71.64,1.68.76,2.29-.99.62-1.98,1.18-2.76,1.56.09-1.16.22-2.39.37-3.66.44-.23.93-.47,1.44-.72ZM97.73,29.5c0,.08,0,.15.01.23-.8.77-1.6,1.52-2.41,2.28-.23-.33-.43-.65-.52-.86.02-.01.04-.02.06-.04,1.06-.61,2.15-1.23,2.86-1.6ZM98.33,25.24s.07.07.12.1c.4.35.94.82,1.2,1.35-.12.09-.25.18-.36.27-.39.29-.74.55-1.04.74,0-.78.04-1.61.08-2.45ZM102.43,27.98c-.14.21-.27.41-.38.58-.79,0-1.55-.02-2.25-.06.98-.96,1.95-1.92,2.91-2.89.28.02.67.07,1.1.13-.44.86-.97,1.63-1.38,2.25ZM102.37,31.4s-.04.02-.06.04c-.02.03-.02.05-.01.08-.3.52-.61,1.06-.9,1.59-.63-.23-2.09-.3-2.93-.3-.06,0-.11,0-.16,0,1.02-1.55,1.97-3.03,2.35-3.74,1.02.03,2.12.02,3.25-.02-.43.53-.98,1.4-1.54,2.35ZM99.86,35.87c-.38.29-.73.61-1.06.96-.82-.14-2.44-.03-3.21.03.59-.86,1.6-2.35,2.58-3.84,0,0,.01,0,.02,0h0c.9-.02,2.46.05,3.1.27-.16.3-.32.59-.48.87-.43.79-.78,1.42-.96,1.71ZM96.42,39.89c-.19.27-.39.55-.59.83l-.22-.09c-.78-.31-2.05-.82-2.85-1.03.72-.83,1.59-1.65,2.65-2.51h.1c.69-.06,2.24-.17,3.11-.07-.8.86-1.49,1.84-2.21,2.87ZM91.88,40.73c.23-.32.47-.64.74-.96.78.19,2.11.72,2.92,1.05l.17.07s-.03.05-.05.07c-1.31-.05-2.58-.12-3.78-.22ZM88.14,50.45c-.37.32-.69.65-1,1.01-.45-.08-.86-.1-1.28-.1-.38,0-.77.02-1.19.04-.1,0-.21.01-.32.02.23-.28.45-.55.66-.79.91-1.08,1.63-1.94,2.1-3.04.96.06,1.83.27,2.8.68-.78,1.06-1.44,1.89-1.77,2.19ZM89.39,52.64c-.95-.03-1.89-.06-2.82-.11.3-.43.6-.8.91-1.14l.38.16c.59.25,1.44.62,1.8.81-.08.08-.17.15-.25.24-.01.01-.01.03-.02.04ZM85.43,52.47s-.04-.04-.06-.04c0,0-.01,0-.02,0-.03,0-.05.02-.07.04-.46-.03-.92-.05-1.37-.08,0,0,0,0,0-.01-.02-.01-.04-.02-.06-.02-.02,0-.03.01-.04.02-.07,0-.13,0-.2-.01.19-.25.39-.5.57-.73.18,0,.35-.02.51-.03.88-.05,1.53-.08,2.31.04-.22.27-.44.55-.66.87,0,0,0,0,0,0-.3-.01-.6-.03-.9-.05ZM83.34,56.55s-.06,0-.1,0c-.47,0-1.31.13-2.06.24-.18.03-.35.05-.51.08.09-.22.18-.44.25-.66.23-.35.78-.99,1.36-1.67.49-.57.98-1.15,1.35-1.63.48.03.96.06,1.45.09-.31.79-.98,2.12-1.74,3.56ZM81.68,59.56c-.47.05-1.41.18-2.45.33.48-.91.97-1.89,1.36-2.8.19-.03.4-.06.63-.09.7-.11,1.56-.23,2.02-.24-.51.94-1.05,1.91-1.55,2.8ZM80.17,62.14c-.69-.05-1.37-.1-2.05-.15.16-.32.37-.7.59-1.12.13-.24.26-.49.4-.75,1-.15,1.93-.28,2.45-.34-.55.96-1.04,1.8-1.39,2.36ZM70.83,61.22c.29-.47.51-.88.72-1.27.71.4,1.24.8,1.73,1.57-.84-.09-1.65-.2-2.45-.3ZM69.63,64.9s-.08,0-.13,0c-.67,0-1.68.03-2.65.07-.82.03-1.6.05-2.17.06.65-.49,1.13-.99,1.55-1.55.02-.01.03-.03.04-.05.25-.34.5-.69.76-1.08.06-.09.13-.19.2-.29.47.23,1.28.44,2.08.64.59.15,1.14.29,1.44.42-.33.54-.71,1.14-1.11,1.78ZM68,67.36c-1.14-.23-3.53-.48-4.7-.51.4-.59.77-1.15,1.13-1.62.57,0,1.48-.03,2.44-.06.97-.03,1.97-.06,2.64-.07-.47.73-.98,1.5-1.5,2.25ZM65.81,70.31c-.95-.4-2.91-1.16-3.9-1.47.43-.57.85-1.19,1.25-1.78,1.07,0,3.5.26,4.71.49-.69,1-1.4,1.95-2.06,2.76ZM70.02,72.29c-1.67-.23-3.33-.49-4.97-.79.34-.36.7-.77,1.07-1.24,1.15.34,3.29,1.47,3.95,1.98-.02.02-.03.04-.05.05ZM67.22,75.54c-.72.08-2.28.18-3.05.13.97-1.38,1.78-2.66,2.11-3.41,1,.17,2.01.33,3.01.47-.54.72-1.29,1.72-2.07,2.81ZM62.52,77.58c-.16-.1-.38-.24-.65-.41-.89-.55-2.22-1.39-2.8-1.72.76-.71,1.52-1.45,2.16-2.13,0,0,0,0,0,0,.61-.64,1.11-1.24,1.43-1.72.02,0,.03,0,.05,0,.04.1.09.21.14.35.39.97,1.04,2.56,1.49,3.11-.56.82-1.2,1.7-1.83,2.53ZM52.1,77.85c.19-.18.38-.37.59-.57.37.24,1.07.72,1.63,1.13-.74-.18-1.48-.37-2.22-.56ZM47.62,79.11c-.84-.19-2-1.13-2.62-1.64-.1-.08-.18-.14-.25-.2.09-.33.16-.65.21-.91,1.24.39,2.52.77,3.83,1.14-.22.35-.64.92-1.17,1.61ZM44.12,78.64c-.77-.43-2.1-1.69-2.28-2.05.3-.4.55-.75.71-1,.72.24,1.45.48,2.21.72-.11.61-.36,1.51-.64,2.33ZM40.78,77.63c-.73-.36-1.51-1.51-1.67-2.12,0-.01-.01-.02-.02-.03.42-.3.76-.55.98-.76.73.27,1.5.54,2.29.8-.32.47-.89,1.24-1.57,2.11ZM38.38,75.7c-1.16-.17-2.62-.74-3.43-1.33.73-.41,1.29-.76,1.56-1,.02-.02.03-.04.03-.06.99.44,2.1.88,3.3,1.33-.31.27-.83.64-1.46,1.07ZM31.27,76.05c-.23-.56-1.17-1.46-1.77-1.83,1.14-.47,2.24-.95,3.1-1.37,0,0,0,0,0,0,.09.44.71,1.55.99,2.01-.73.38-1.53.78-2.33,1.18ZM30.25,76.55s0,0,0,0c-.85.42-1.67.81-2.37,1.14-.16-.55-.6-1.7-1.05-2.39.77-.3,1.6-.63,2.43-.98.53.27,1.63,1.28,1.82,1.82-.28.14-.56.27-.83.41ZM27.98,74.29c-.06-.34-.14-.78-.17-1.08.8-.25,1.59-.51,2.38-.77.11.27.31.61.5.95.02.03.03.06.05.08-.86.37-1.8.76-2.71,1.13-.02-.09-.03-.19-.05-.31ZM28.14,67.41c0,.83-.44,2.65-.75,3.5-.34.02-.69.04-1.04.06,0,0,0,0,0,0,0,0,0,0,0,0-.38.02-.77.05-1.15.08.22-.85.73-2.93.88-3.63.69,0,1.39,0,2.06,0ZM30.23,64.34c.14.02.27.05.41.07.68.12,1.25.22,1.65.29-.16.87-.3,1.71-.42,2.51-.39,0-.9,0-1.5,0-.25,0-.52,0-.79,0,.06-.6.28-1.44.46-2.13.08-.29.14-.53.19-.74ZM36.79,58.95c.34-.03.69-.06,1.05-.1.28-.03.58-.06.87-.08.02.03.04.05.08.06.05,0,.09-.03.1-.07.48-.05.97-.09,1.46-.13-.07.27-.17.69-.28,1.18-.24,1.05-.57,2.49-.86,3.17-.78.25-1.44.49-1.88.68-.37-.95-.55-3.53-.51-4.63,0-.03-.01-.05-.03-.07ZM38.93,56.08c.62-.14,1.78-.34,3.09-.52.16.53.16,1.99.05,2.71-1.03.08-2.13.17-3.17.27.03-.64.06-1.84.02-2.47ZM46.15,55.18s0,0,0,0c-.42.71-1.13,1.85-1.59,2.58l-.24.38c-.62.02-1.31.06-2.04.11.09-.7.11-2.12-.06-2.72,1.29-.17,2.71-.31,3.92-.35ZM46.9,51.55c-.14.63-.27,1.26-.4,1.88-.21-.69-.34-1.58-.34-1.93.27.01.51.03.74.05ZM51.28,51.56c.19-.05.38-.09.56-.14-.05.35-.07.76-.1,1.2-.05.93-.12,1.99-.42,2.63-.72.16-1.48.34-2.23.53.09-.68.1-1.75.1-2.7,0-.37,0-.71.01-1,.65-.16,1.35-.33,2.06-.51ZM54.88,50.67c-.24.57-.63,1.37-1.01,2.14-.39.8-.77,1.55-.98,2.07-.42.1-.86.2-1.31.31.27-.68.33-1.67.38-2.56.03-.47.05-.91.11-1.27.95-.24,1.91-.48,2.82-.69ZM56.83,50.22c.02.28.04.72.06,1.18.03.75.06,1.59.14,2.12-.12.02-.24.05-.36.07-1.28.25-2.3.46-3.49,1.13.22-.49.53-1.14.87-1.82.42-.84.84-1.71,1.07-2.29.6-.14,1.18-.28,1.7-.39ZM60.58,44.32c.67-.07,1.59-.15,2.59-.23-.45,1.02-.96,2.08-1.35,2.61,0,0,0,.02,0,.03-.8.08-1.49.13-1.93.15.22-.85.46-1.7.7-2.56ZM61.08,42.56c.29-.07.65-.16,1.05-.25,0,0,.01,0,.02,0,.58-.13,1.24-.29,1.96-.44-.03.08-.07.17-.11.27-.18.45-.44,1.08-.73,1.74-1.01.08-1.93.16-2.63.23.14-.51.29-1.03.44-1.54ZM66.66,41.32s.04.02.07.02c.03,0,.06-.02.08-.05.3-.06.6-.12.89-.18-.09.38-.49,1.21-.82,1.89-.11.23-.21.44-.29.61-.79.07-1.65.13-2.48.2-.2.02-.4.03-.6.05.27-.63.52-1.22.69-1.64.07-.16.12-.3.17-.41.74-.16,1.53-.33,2.3-.49ZM75.9,41.02c.29.93.59,2.25.53,3.13-.5.28-.99.55-1.47.82-.78.43-1.52.84-2.19,1.22-.12-1.14-.84-2.16-1.28-2.75.04-.24.09-.49.14-.73.54-.21,1.1-.43,1.68-.66.85-.34,1.74-.69,2.6-1.02ZM79.41,39.8s.03-.01.04-.02c0,0,0,0,0,0,0,0,0,0,0,0,.29-.29.87-.76,1.58-1.29.25.58.64,1.76.81,2.64-1.54.86-3.4,1.9-5.21,2.9.03-.9-.25-2.15-.54-3.08,1.28-.49,2.47-.91,3.32-1.14ZM84.93,36.03c-.11,1.24-.18,2.41-.23,3.47-.59.34-1.53.88-2.67,1.51-.18-.9-.58-2.09-.83-2.65,1.27-.93,2.84-1.96,3.72-2.33ZM86.52,36.33c.05.11.09.23.14.34.33.82.64,1.6.71,2.51-.36.31-.73.62-1.09.93,0,0-.01,0-.02.01-.35.3-.71.6-1.06.9.02-1.2.08-2.59.2-4.12.34-.16.71-.35,1.12-.58ZM95.51,32.58c.08.1.16.19.24.27,0,0,0,0,0,.01.02.02.05.05.07.07,0,0,.02.02.02.03,0,0,0,0,0,0,.4.4.94.9,1.37,1.11-.77,1.15-1.48,2.2-1.91,2.82-1.45.44-3.28.14-4.36-.16,1.52-1.36,3.04-2.74,4.55-4.15ZM98.19,30.04s.03-.02.04-.04c.35-.34.7-.67,1.05-1.01.37.03.75.05,1.15.07-.51.93-1.85,2.98-3.08,4.83-.42-.2-.96-.7-1.36-1.11-.1-.11-.21-.23-.31-.36.85-.79,1.69-1.59,2.53-2.39ZM90.78,36.89c1.16.35,2.8.6,4.19.3-.97.81-1.78,1.6-2.45,2.38,0,0,0,0,0,0-.32.38-.61.75-.87,1.14-.37-.03-.73-.07-1.09-.1-.5-.67-1.11-1.46-1.96-1.8.73-.63,1.46-1.27,2.19-1.92ZM88.61,45.88c-.64-.3-1.99-.8-2.94-1.03,1.5-1.63,2.79-3.08,3.45-3.85.95.12,1.95.22,3.01.3-.51,1.24-2.17,3.2-3.52,4.59ZM86.99,47.38s0,0,0,0c0,0,0,0-.01.01,0,0-.02.01-.02.02-.45,1.08-1.15,1.92-2.03,2.97-1.02-.35-2.55-.77-3.56-.93,1.32-1.39,2.81-2.99,4.16-4.46.01,0,.02.02.03.02.89.22,2.24.7,2.9,1.01-.63.63-1.17,1.13-1.47,1.35ZM83.36,52.34c-1.55-.11-3.04-.24-4.41-.38.48-.48,1.06-1.07,1.71-1.74,0,0,0,0,0,0,.01,0,.02-.02.03-.03.16-.17.33-.35.5-.53.97.13,2.53.56,3.59.92-.43.52-.91,1.09-1.42,1.77ZM78.97,59.93c-1.26.19-2.6.42-3.35.61.17-.31.36-.65.55-.99.76-1.37,1.62-2.91,1.86-3.77.73.07,1.78.21,2.67.45-.41,1.13-1.08,2.48-1.72,3.69ZM71.05,60.43c-1.05-.45-2.87-1.06-4.16-1.44.37-.35.76-.72,1.16-1.1.02,0,.03-.02.04-.04.5-.48,1.01-.98,1.51-1.48l.7-.05c1.32-.1,2.79-.21,3.72-.19-.65.82-1.26,1.51-1.7,1.87,0,0,0,0,0,0,0,0,0,0,0,0,0,0,0,.01-.01.02-.17.33-.32.63-.46.91-.26.52-.49.98-.78,1.5ZM65.37,60.36c.39-.34.85-.75,1.34-1.2,1.28.38,3.15,1.01,4.23,1.46-.1.18-.22.37-.34.58-1.89-.25-3.65-.53-5.23-.83ZM66.87,62.23c-.25.37-.49.72-.74,1.05-1.23-.13-3.14-.22-4.46-.16.84-1.07,1.57-2.06,1.93-2.55,1.19.27,2.5.51,3.9.74-.23.32-.44.63-.64.92ZM64.31,65.05s0,0-.01.01c0,0,0,0,0,0,0,0,0,0,0,0-.38.5-.78,1.09-1.2,1.72-.11.16-.22.32-.33.48-1.28-.49-2.34-.5-3.36-.51-.29,0-.59,0-.9-.02.73-.62,1.92-2.05,2.99-3.41,1.27-.07,3.19,0,4.48.14-.45.57-.95,1.08-1.67,1.57ZM64.47,74.87c-.43-.56-1.07-2.14-1.42-3.01-.03-.08-.06-.15-.09-.22,1.03.21,2.07.4,3.11.58-.28.61-.87,1.57-1.6,2.65ZM61.12,73.13c-.41-.04-1.12-.07-1.87-.1-.8-.03-1.62-.07-2.16-.12.81-.87,1.44-1.64,1.72-2.19,1.18.29,2.4.57,3.64.82-.31.45-.77,1-1.32,1.59ZM53.83,75.89c-.26-.11-.69-.3-1.18-.52-1.03-.47-2.29-1.04-3.07-1.28.2-.13.41-.26.63-.4.03,0,.06,0,.08-.03,0,0,.01-.02.02-.03.68-.44,1.4-.94,2.1-1.43.03,0,.05-.02.07-.04,0,0,0,0,0-.01.22-.16.44-.32.65-.47.48.55,2.02,1.87,2.68,2.28-.64.65-1.32,1.31-1.97,1.94ZM47.48,75.06c-.57-.17-1.73-.54-2.69-.84l-.88-.28c.95-.72,1.97-1.5,2.95-2.26.18.1.43.24.73.41.81.45,2,1.1,2.44,1.46-1.08.7-2.03,1.26-2.54,1.5ZM42.48,75.01c.38-.28.79-.59,1.22-.91l1.02.32c.91.28,2,.62,2.59.8-.26.34-.54.68-.86,1.05-1.38-.41-2.71-.84-3.97-1.26ZM37.4,73.1s.07-.04.1-.06c.01,0,.03,0,.04,0,.02,0,.03-.03.05-.05.2-.11.41-.22.62-.33.29-.15.57-.3.84-.45.63.39,1.41,1.25,1.83,2.23-1.26-.45-2.42-.9-3.48-1.35ZM33.68,71.24c.73-.25,1.45-.51,2.16-.77.4.55,1.26,1.93,1.51,2.42-.07.04-.13.07-.2.11-1.39-.6-2.57-1.19-3.47-1.75ZM30.94,73.38s-.04-.06-.06-.11c-.14-.24-.37-.63-.49-.91.48-.16.96-.32,1.43-.48.02,0,.03,0,.05-.02.39-.13.78-.27,1.17-.4.24.16.5.32.78.48-.54.36-1.62.88-2.88,1.43ZM29.72,72.02c-.2-.32-.35-.7-.44-1.01.93-.06,1.71-.11,2.23-.16,0,.2-.01.39-.02.58-.59.2-1.18.4-1.77.59ZM30.73,67.42c.43,0,.81,0,1.11,0-.11.76-.19,1.49-.25,2.18-.45-.65-.95-1.61-.87-2.19ZM33.11,70.87s-.06-.02-.09-.02c-.09,0-.17.04-.22.11,0,0,0,.01,0,.02-.25.09-.5.17-.75.26.02-.62.06-1.28.13-1.98.79.29,1.43.77,1.77,1.32-.27.1-.55.19-.82.29ZM37.19,67.16c1.12-.24,2.29-.48,3.4-.71-.02.48-.06,1.21-.14,1.7-1.11.44-2.24.87-3.38,1.29.06-.7.09-1.41.11-1.95,0-.13,0-.24.01-.33ZM43.42,58.39c-.07.73.1,2.68.26,3.39-1.1.23-2.32.54-3.42.86,0,0,0,0,0,0,0,0,0,0,0,0-.27.08-.53.16-.79.24.27-.73.57-2,.81-3.04.12-.54.23-1,.3-1.25.98-.09,1.96-.16,2.84-.21ZM50.05,55.76c-.01.34.02.81.05,1.32.06.92.13,1.95-.02,2.65-.41-.06-.96-.1-1.55-.13,0,0,0,0,0,0,0,0,0,0,0,0-.56-.02-1.17-.03-1.74-.03.65-.83,1.52-2.95,1.6-3.39.55-.15,1.11-.29,1.67-.43ZM51.4,55.44c.55-.13,1.09-.25,1.59-.37,0,0,0,0,.01,0,0,0,0,0,0,0,0,0,0,0,.01,0,.77-.47,1.46-.73,2.18-.93-.24,1.3-.95,3.18-1.52,4.29-1.34.48-2.66.97-3.39,1.25.14-.72.07-1.72,0-2.61-.03-.5-.07-.97-.05-1.3,0-.02,0-.03-.02-.05.39-.09.79-.18,1.17-.27ZM57.16,53.71s0,0,0,0c0,0,0,0,0,0,.17-.03.35-.07.54-.11-.27,1.34-.49,2.59-.64,3.72-.75.2-1.91.59-3.09,1,.57-1.16,1.24-3,1.46-4.25.41-.1.83-.19,1.28-.27.15-.03.3-.06.45-.09ZM59.56,48.12c.78.7,1.38,1.58,1.61,2.39-.15.02-.3.05-.45.07,0,0,0,0,0,0,0,0,0,0,0,0-.6.09-1.21.2-1.84.33.21-.91.44-1.84.69-2.8ZM67.14,46.47c.31.83.32,1.8.19,2.4-1.37.37-2.66.79-3.47,1.18.5-1.24.81-2.23.95-3.41.95-.09,1.8-.16,2.33-.17ZM71.44,43.7c.44.6,1.06,1.55,1.13,2.58-.66.37-1.25.69-1.74.97.18-1.12.38-2.3.6-3.55ZM79.09,42.9c.42.85.55,1.79.39,2.79-.88.7-1.76,1.38-2.62,2.05-.18-.97-.58-2.6-.9-3.1,1.03-.57,2.09-1.16,3.13-1.74ZM82.79,40.83c0,.05.02.1.03.16.07.45.18,1.11.47,1.62-1.2.99-2.39,1.96-3.56,2.89.11-.96-.04-1.89-.44-2.7,0,0,0,0,0,0,1.28-.71,2.5-1.4,3.52-1.97ZM86.51,40.6c.72.13,1.51.25,2.36.36-.57.67-1.55,1.77-2.71,3.04-.58-.22-1.33-.93-1.9-1.5.28-.23.56-.47.84-.71,0,0,0,0,0,0,.47-.39.93-.79,1.4-1.19ZM83.05,47.38c-.74-.53-1.47-1.21-2.23-2.06,1.09-.87,2.19-1.77,3.29-2.69.66.66,1.34,1.28,1.91,1.53-.93,1.02-1.95,2.13-2.97,3.22ZM80.63,49.94c-.47-.73-1.9-1.78-2.88-2.2.96-.74,1.93-1.5,2.91-2.29.76.85,1.5,1.54,2.25,2.08-.79.85-1.57,1.67-2.28,2.41ZM77.93,55.54c-.64-.35-1.46-.52-2.13-.65-.19-.04-.37-.07-.53-.11.61-.88,1.17-1.77,1.57-2.53,1.08.14,2.24.28,3.47.39-.37.41-.77.93-1.16,1.43-.46.59-.9,1.15-1.21,1.46ZM74.18,55.92c-.13,0-.27,0-.43,0-.94,0-2.27.1-3.46.19l-.45.03c1.21-1.21,2.38-2.43,3.28-3.44.89.46,1.96,1.06,2.39,1.37-.42.63-.88,1.27-1.32,1.85ZM65.11,60.31c-.76-.15-1.49-.3-2.15-.46-.07-.52-.22-1.23-.43-1.71.46-.27.91-.54,1.36-.8,1.25.07,2.9.34,3.89.53-1.02.98-1.96,1.84-2.67,2.45ZM56.49,69.56c.12-.13.23-.26.35-.4.93-.07,3.74.07,4.4.21-.37.45-.73.83-1.09,1.12-1.26-.29-2.48-.61-3.66-.94ZM56.26,69.49c-1.5-.43-2.92-.89-4.22-1.37.12-.09.24-.2.36-.3.6.08,1.53.16,2.43.24.91.08,1.83.16,2.42.24-.32.42-.66.83-.99,1.19ZM53.09,71.44s-.02,0-.02,0c0,0,0,.01,0,.01-.22.17-.45.33-.68.5-.56-.46-1.75-2.1-2.25-2.81.36-.27.67-.52.94-.72.03-.02.04-.06.03-.1,1.25.49,2.63.96,4.08,1.39-.53.5-1.27,1.1-2.09,1.71ZM50.2,73.44c-.42-.37-1.62-1.03-2.52-1.53-.26-.14-.48-.27-.66-.36.49-.38.96-.75,1.42-1.1.55-.43,1.06-.82,1.52-1.17.29.41,1.57,2.22,2.24,2.81-.67.47-1.35.94-2,1.36ZM44.61,73.15c-.19-.14-.54-.46-.94-.83-.64-.59-1.43-1.32-1.98-1.68.05-.03.1-.06.15-.09.29-.18.6-.37.92-.57,0,0,0,0,0,0,.42-.26.85-.53,1.29-.8.55.26,2.61,1.5,3.25,1.92-.87.68-1.79,1.38-2.68,2.06ZM40.31,71.24c-.09-.56-.54-1.64-.77-2.15,1.06-.41,2.1-.82,3.14-1.24.02.54-.02,1.58-.07,1.98-.31.19-.6.37-.88.54-.62.38-1.13.7-1.41.88ZM41.54,66.25c.37-.08.72-.15,1.06-.22.22.29.42.65.56,1.02-.82.34-1.65.67-2.48,1,.09-.59.12-1.39.13-1.66.25-.05.5-.1.74-.15ZM45.02,61.75c-.2,1.34-.37,2.58-.5,3.67-.17.04-.36.08-.56.12-.29-.8-.94-2.69-.98-3.39.73-.17,1.43-.31,2.05-.4ZM45.88,59.8c.21,0,.44-.01.67-.02h0c.59,0,1.22,0,1.81.02-.15.32-.35.75-.55,1.2-.43.97-.92,2.07-1.31,2.72-.45.13-.87.24-1.25.31,0,0,0,0-.02,0,.17-1.28.38-2.71.64-4.25ZM50.08,59.93c.32.82.47,1.64.54,2.21-1.34.58-2.68,1.13-3.84,1.49.37-.67.81-1.66,1.21-2.55.22-.49.43-.95.58-1.28.58.03,1.11.07,1.5.13ZM53.71,58.64c.16.29.45.68.71,1.04.15.21.3.41.4.56-.37.17-.75.34-1.15.53-.9.41-1.87.86-2.85,1.29-.07-.57-.22-1.36-.53-2.15.7-.27,2.04-.77,3.41-1.26ZM62.18,54.65c-.1.87-.4,2.33-.8,3.53-.49.28-.98.56-1.47.83-.06.01-.11.04-.14.08-.29.16-.58.33-.88.49-.27-.5-.86-1.22-1.36-1.53.05-.4.1-.82.17-1.26,1.03-.55,2.68-1.33,4.48-2.13ZM70.11,48.41c-.15.99-.27,1.91-.37,2.74-1.07.45-2.86,1.21-4.79,2.05.51-1.17,1.15-2.81,1.37-3.82,1.29-.38,2.71-.73,3.79-.97ZM70.55,49.2c.35.57.97,1.57,1.27,2.3-.06.05-.13.09-.19.14-.49.35-.99.7-1.49,1.04.08-.97.22-2.15.41-3.49,0,0,0,0,0,0ZM74.61,50.12c1.09.06,2.81,1,3.37,1.73-1.83-.22-3.44-.47-4.71-.74.44-.32.89-.65,1.34-.99ZM75.62,53.9c-.44-.31-1.48-.9-2.36-1.36.24-.27.45-.52.64-.75.82.16,1.73.31,2.72.44-.27.51-.62,1.08-1,1.67ZM72.69,51.53c.31.07.64.14.98.21-.73.87-1.82,2.04-3.01,3.26-.46-.14-1.27-.36-2.22-.54,1.19-.78,2.35-1.58,3.49-2.39.25-.18.5-.36.75-.54ZM66.12,55.32c.1-.89.14-1.91.14-2.46,1.39-.6,2.62-1.12,3.46-1.47-.07.62-.12,1.19-.16,1.68-1.12.76-2.27,1.52-3.44,2.26ZM66.05,52.95c0,.61-.05,1.64-.16,2.52-1.38.87-2.8,1.72-4.24,2.56.39-1.23.67-2.64.75-3.47,1.21-.54,2.48-1.1,3.65-1.6ZM59.84,61.33c-.57-.27-1.09-.51-1.66-.75.61-.33,1.22-.66,1.83-1,.4.14.82.28,1.28.41-.38.38-.88.84-1.45,1.34ZM52.86,67.18c-.17.14-.33.27-.48.39-.14-.93-.91-2.44-1.64-3.26.91-.43,1.82-.86,2.71-1.3.33.08.76.21,1.22.34.77.23,1.64.48,2.17.55-1.38,1.15-2.8,2.32-3.98,3.28ZM48.58,66.63c-.12-.31-.33-.69-.56-1.07.85-.38,1.69-.76,2.52-1.15.79.85,1.57,2.5,1.65,3.31,0,0,0,0,0,.01-.13.11-.26.21-.38.31-1.18-.45-2.27-.92-3.23-1.41ZM49.04,69.73c-.19-.35-.78-.97-1.5-1.73-.27-.28-.5-.52-.62-.66.32-.21.59-.4.82-.56.95.52,2.02,1.01,3.21,1.48-.48.37-1.14.87-1.9,1.46ZM47.46,70.95c-.54-.36-2.49-1.54-3.21-1.91.89-.56,1.77-1.11,2.49-1.58.12.14.35.39.65.69.54.56,1.33,1.38,1.48,1.71-.18.14-.36.28-.55.42-.28.21-.56.44-.86.66ZM45.28,66.75c.02.16.04.34.06.53.03.31.06.59.11.76-.47.3-.97.61-1.47.93,0,0,0,0,0,0-.39.24-.78.49-1.16.72.05-.5.08-1.43.05-1.93.81-.33,1.61-.67,2.41-1.01ZM45.21,64.22s.05.02.08.02c.36-.06.77-.17,1.2-.29.32.28.7.74,1.04,1.24-.32.14-.64.28-.97.43,0,0-.02,0-.02.01-.52.23-1.05.46-1.58.68.07-.64.16-1.33.26-2.08ZM51.79,61.85c-.23.59-.49,1.21-.75,1.72-1.09.52-2.2,1.03-3.32,1.53-.33-.48-.69-.92-1-1.22,1.51-.47,3.33-1.24,5.07-2.02ZM56.85,59.58c-.02.39-.02.76-.01,1.09-.74.39-1.49.77-2.25,1.16.15-.41.32-.92.5-1.49.67-.3,1.26-.56,1.76-.76ZM57.38,60.39c0-.62.04-1.33.12-2.12.46.32.97.98,1.2,1.41-.44.24-.88.48-1.33.71ZM54.32,61.97c-.98.49-1.97.98-2.97,1.45.25-.53.49-1.14.71-1.7.58-.26,1.15-.52,1.69-.77.37-.17.73-.34,1.08-.49-.19.59-.37,1.12-.52,1.51ZM45.64,67.92c-.03-.16-.06-.41-.09-.66-.02-.22-.05-.42-.07-.59.39-.17.79-.34,1.18-.51.27.17.56.35.87.52-.47.33-1.14.77-1.89,1.25ZM47.26,65.89c.19-.08.38-.17.57-.25.18.29.34.58.46.84-.36-.19-.71-.39-1.03-.58ZM57.03,63.73s-.03-.03-.06-.03c-.49-.04-1.42-.31-2.25-.56-.35-.1-.69-.2-.99-.28,1.43-.71,2.83-1.43,4.21-2.17.59.26,1.14.5,1.72.78-.79.69-1.69,1.47-2.64,2.26ZM60.64,59.22c.57-.32,1.14-.65,1.71-.98.18.42.32,1.05.39,1.55-.78-.19-1.49-.38-2.1-.58ZM56.86,59.35c-.51.2-1.14.48-1.85.8-.11-.16-.26-.37-.43-.6-.25-.34-.53-.72-.68-.99,1.18-.42,2.36-.81,3.13-1.02-.08.65-.14,1.25-.17,1.81ZM44.49,65.64c-.04.31-.07.62-.1.91-.35.15-.7.29-1.04.43-.14-.36-.32-.7-.53-.99.64-.13,1.21-.25,1.68-.35ZM57.39,68.11c-.58-.08-1.57-.17-2.54-.25-.81-.07-1.63-.14-2.23-.21.12-.1.24-.2.37-.3.83-.68,1.77-1.45,2.74-2.25.62.37,1.75,1.17,2.38,1.78-.17.41-.42.83-.72,1.24ZM58.24,66.7c-.63-.6-1.7-1.36-2.34-1.75,1.38-1.15,2.79-2.33,3.93-3.34.12.15.27.36.44.59.31.42.65.89.88,1.12.02.02.05.03.07.03-1.14,1.43-2.34,2.86-2.99,3.35ZM61.27,63.14c-.22-.23-.54-.67-.83-1.06-.17-.23-.33-.45-.45-.6.61-.54,1.14-1.03,1.53-1.42.58.16,1.21.32,1.87.47-.46.63-1.19,1.61-1.99,2.61-.04,0-.09,0-.13,0ZM67.96,57.68c-.42-.08-2.24-.43-3.76-.54,1.36-.82,2.69-1.66,3.99-2.52.96.17,1.81.39,2.31.54-.83.85-1.7,1.71-2.53,2.51ZM78.68,51.93c-.14-.02-.28-.03-.43-.05-.45-.75-2.17-1.76-3.4-1.94.89-.66,1.79-1.35,2.71-2.05,1.02.41,2.52,1.54,2.92,2.21-.69.72-1.3,1.34-1.8,1.83ZM84.65,41.47c-.4.34-.81.68-1.21,1.01-.25-.48-.35-1.09-.42-1.52-.01-.09-.03-.16-.04-.24.7-.39,1.28-.73,1.71-.97-.02.61-.03,1.19-.04,1.72ZM75.78,44.74c.28.43.72,2.12.9,3.14-.98.75-1.94,1.47-2.89,2.17.14-.62.26-1.47.38-2.31.13-.97.26-1.88.41-2.33,0,0,0,0,0,0,.16-.09.32-.18.48-.27.24-.13.48-.26.72-.4ZM73.96,47.72c-.13.96-.27,1.93-.44,2.54-.52.38-1.03.75-1.53,1.11-.31-.74-.92-1.72-1.26-2.28-.05-.08-.1-.16-.13-.22.06-.44.13-.89.2-1.36.88-.49,2.12-1.18,3.52-1.96-.13.51-.24,1.32-.36,2.17ZM70.14,48.19c-.82.18-1.71.39-2.59.63.11-.63.09-1.58-.21-2.4.39-.21,1-.46,1.65-.73.58-.24,1.18-.48,1.67-.72-.2,1.13-.37,2.21-.52,3.22ZM63.68,50.38s.01,0,.02,0c0,0,0,0,0,0,0,0,0,0,0,0,.53-.3,1.4-.61,2.37-.91-.25,1.04-.89,2.66-1.39,3.78,0,.02,0,.05,0,.07-1.44.63-2.94,1.29-4.26,1.9.08-.78.16-1.83.23-2.78.05-.65.09-1.25.13-1.66.89-.14,1.75-.25,2.6-.36l.27-.03ZM58.82,51.13c.61-.13,1.2-.23,1.78-.32-.04.41-.08.99-.13,1.61-.07.99-.15,2.11-.24,2.89-.98.46-1.85.87-2.5,1.22.25-1.61.63-3.44,1.08-5.39ZM46.49,59.57c-.2,0-.4,0-.59.01.15-.89.31-1.82.49-2.78.54-.2,1.13-.39,1.75-.56-.18.62-1.07,2.71-1.65,3.33ZM45.61,58.14c-.16,0-.34,0-.52,0-.16,0-.33,0-.51,0l.16-.26c.38-.61.89-1.42,1.29-2.09-.15.8-.3,1.59-.43,2.35ZM45.57,58.35c-.19,1.11-.37,2.18-.52,3.19-.36.05-.76.12-1.17.2-.16-.68-.33-2.69-.26-3.36.74-.04,1.4-.05,1.95-.03ZM42.77,62.2c.07.83.8,2.89.98,3.39-.65.14-1.42.29-2.26.47-.47.1-.96.2-1.46.3.02-.19.06-.44.1-.72.14-.97.32-2.28.26-2.81.77-.22,1.58-.44,2.38-.63ZM39.34,69.16c.25.55.74,1.74.77,2.2-.31.2-.69.41-1.1.64-.01,0-.02,0-.03.02-.28.15-.57.31-.88.47-.19.1-.38.2-.57.3-.25-.5-1.06-1.8-1.49-2.39,1.11-.4,2.2-.82,3.29-1.23ZM41.13,74.54c-.4-1.04-1.21-1.98-1.88-2.43.38-.21.73-.41,1.03-.6.19-.12.64-.4,1.21-.75.54.34,1.36,1.1,2.04,1.72.39.36.71.65.91.81-.78.6-1.53,1.16-2.2,1.65-.38-.13-.75-.26-1.11-.39ZM55.95,73.8c-.6-.35-2.18-1.7-2.67-2.25.86-.64,1.62-1.26,2.13-1.75,1.03.3,2.09.6,3.19.87-.39.72-1.44,1.89-2.65,3.13ZM60.4,70.55c.46-.4.92-.93,1.37-1.53.94.28,2.91,1.05,3.9,1.46-.3.37-.6.69-.87.98-1.5-.27-2.97-.58-4.4-.91ZM61.38,69.19c-.44-.14-2.62-.26-3.89-.26-.18,0-.33,0-.47,0,.52-.64,1.01-1.32,1.29-2,.37.02.75.03,1.1.03.99,0,2.01.02,3.24.48-.41.6-.84,1.2-1.26,1.74ZM75.14,54.97c.17.04.39.09.62.13.65.13,1.46.29,2.07.63-.15.53-.55,1.34-1.02,2.22-.52-.07-1.07-.1-1.62-.1-.7,0-1.4.04-2.1.08-.14,0-.28.02-.42.02.68-.63,1.6-1.77,2.46-2.98ZM80.79,56.04c-.86-.23-1.87-.38-2.61-.46.31-.33.71-.84,1.13-1.38.43-.55.87-1.11,1.26-1.54.91.08,1.86.16,2.82.22-.35.45-.81.98-1.26,1.51-.56.66-1.08,1.27-1.34,1.64ZM88.41,38.97c.79.27,1.36.95,1.86,1.61-1.17-.12-2.25-.27-3.23-.43.46-.39.91-.78,1.37-1.18ZM70.71,44.72c-.51.26-1.16.52-1.79.78-.62.25-1.19.49-1.59.7,0-.22,0-.47-.01-.73-.02-.59-.05-1.26.09-1.73.43-.15,1.13-.47,1.87-.82.68-.32,1.37-.64,1.94-.87-.17.91-.34,1.81-.49,2.68ZM67.1,45.47c.01.29.02.56.01.8-.83.02-2.37.17-3.87.33-.4.04-.8.08-1.18.12.41-.59.9-1.64,1.34-2.63.23-.02.47-.04.71-.06,1.04-.08,2.11-.17,3.07-.25-.12.5-.1,1.13-.08,1.71ZM59.82,47.09c.69-.02,2.03-.15,3.44-.29.45-.05.9-.09,1.34-.13-.14,1.2-.48,2.21-1.01,3.51l-.21.03c-.66.08-1.33.17-2.01.27-.24-.88-.9-1.85-1.76-2.59.07-.27.14-.53.21-.8ZM57.75,53.38c-.17.04-.35.08-.51.11-.07-.52-.1-1.35-.13-2.09-.02-.5-.04-.93-.06-1.22.58-.12,1.08-.22,1.5-.29-.29,1.2-.56,2.37-.79,3.48ZM49,53.08c0,.99-.02,2.09-.11,2.76-.86.22-1.7.47-2.45.74.24-1.3.51-2.64.8-4.02.53-.12,1.13-.26,1.77-.42,0,.28,0,.6-.01.95ZM37.35,63.86c.59-.26,1.64-.62,2.84-.98.04.53-.14,1.83-.27,2.72-.05.32-.08.6-.11.79-1.25.26-2.54.53-3.73.79l.31-.8c.34-.9.75-1.99.96-2.52ZM36.98,67.2c0,.09,0,.18-.01.28-.02.56-.05,1.32-.11,2.04-.9.33-1.81.67-2.73.99-.37-.62-1.07-1.15-1.95-1.46.02-.25.05-.5.08-.75,1.05-.29,2.8-.69,4.71-1.1ZM32.29,68.08c.03-.24.06-.47.09-.72,0-.01.02-.03.02-.05,0,0,0-.01,0-.02.09-.6.19-1.23.3-1.87.37.42.97,1.67,1.22,2.25-.63.15-1.18.28-1.62.41ZM30.37,67.42c.05,0,.1,0,.15,0-.08.73.59,1.88,1.05,2.5-.02.25-.03.48-.05.72-.7.08-1.95.15-3.36.23-.18.01-.36.02-.54.03.32-.91.73-2.66.73-3.49.72,0,1.41,0,2.02,0ZM28.17,71.08c.31-.02.61-.04.89-.05.1.31.24.71.45,1.06-1,.33-2.02.65-3.04.97.12-.58.1-1.34,0-1.88.58-.04,1.15-.07,1.7-.1ZM33.78,74.77c-.29-.47-.9-1.55-.97-1.95,0-.02-.02-.04-.03-.05.54-.27.98-.51,1.25-.7.68.38,1.46.77,2.34,1.16-.4.34-1.37.91-2.58,1.54ZM46.67,76.34c.3-.34.57-.67.81-.99.34.5,1.08,1.19,1.67,1.71-.84-.24-1.67-.48-2.49-.72ZM49.63,77.19c-.98-.82-1.7-1.54-1.99-1.98.42-.2,1.01-.54,1.7-.97.74.2,2.17.85,3.22,1.32.45.2.83.38,1.11.49-.25.24-.49.47-.72.7-.39.37-.75.72-1.08,1.04-.75-.2-1.5-.4-2.24-.6ZM54.82,78.54c-.56-.44-1.5-1.09-1.98-1.41.08-.08.16-.15.24-.24.26-.25.54-.52.81-.78.03,0,.05-.03.06-.06,0,0,0,0,0,0,.37-.36.75-.73,1.13-1.1.7.38,2.03,1.24,2.38,1.67-1,.88-1.87,1.61-2.36,1.98-.09-.02-.18-.05-.28-.07ZM57.62,76.49c-.4-.48-1.73-1.33-2.38-1.68.59-.59,1.16-1.16,1.67-1.71.53.06,1.45.1,2.33.14.66.03,1.28.05,1.7.09-.99,1.04-2.22,2.19-3.32,3.17ZM70.86,62.94c-.31-.14-.88-.28-1.49-.44-.73-.19-1.55-.4-2.01-.62.12-.18.25-.36.38-.54.85.14,1.74.26,2.65.38,0,0,0,0,0,0,.03.02.06.02.08,0,.34.04.68.09,1.02.13-.17.3-.39.67-.64,1.07ZM73.54,61.55c-.54-.9-1.11-1.35-1.89-1.79.13-.25.25-.49.37-.74.13-.26.27-.54.43-.85.22-.01.44-.02.66-.04,1.21-.07,2.45-.14,3.6,0-.23.44-.48.88-.72,1.31-.51.92-.96,1.73-1.18,2.24-.43-.04-.85-.09-1.27-.14ZM75.49,60.79s0,0,.01,0c.67-.19,2.04-.43,3.35-.63-.11.21-.22.42-.33.61-.24.46-.46.86-.63,1.2-.97-.08-1.93-.17-2.87-.27.11-.25.27-.56.46-.92ZM90.04,48.09c-.95-.4-1.8-.62-2.73-.7.64-.52,1.84-1.73,2.93-3.01.01.01.02.02.03.03.42.13,1.17.33,1.98.54-.74,1.06-1.52,2.18-2.22,3.14ZM90.38,44.23c.88-1.05,1.66-2.13,1.97-2.92.74.06,1.51.1,2.29.14-.43.66-1.29,1.93-2.24,3.32-.81-.21-1.58-.41-2.01-.54ZM99.02,28.5s-.04.03-.05.05c-.23.23-.47.45-.7.68-.02-.42-.02-.85-.02-1.3.32-.2.71-.48,1.16-.81.85-.62,1.86-1.36,2.94-1.91-1.1,1.11-2.21,2.2-3.33,3.29ZM94.63,31.24c.11.23.31.57.55.9-1.04.97-2.09,1.94-3.14,2.88-.1-.74-.26-1.38-.53-2.06.68-.34,1.9-1.03,3.12-1.73ZM91.33,33.1c.27.68.43,1.34.52,2.1-1.43,1.29-2.87,2.56-4.3,3.8-.09-.87-.39-1.62-.71-2.41-.05-.12-.1-.24-.14-.36,1.58-.88,3.49-2.13,4.64-3.12ZM84.95,35.8c-.46.18-1.11.55-1.82,1-.11-.44-.25-1.13-.39-1.86.95-.45,1.81-.84,2.41-1.12-.08.68-.14,1.34-.2,1.98ZM82.94,36.91c-1.32.85-2.76,1.92-3.44,2.54,0-.14.01-.27.02-.41.05-.86.09-1.74-.15-2.49.98-.49,2.12-1.03,3.17-1.53.15.76.29,1.46.4,1.89ZM74.39,39c.08.9-.04,1.5-.33,2.51-.28.11-.55.22-.83.33-.54.21-1.06.42-1.56.61.17-.92.36-1.85.55-2.8.79-.2,1.51-.42,2.17-.65ZM57.88,45.57c.03.62.5,1.87,1.06,2.72-.12.46-.23.92-.34,1.38-.59.09-1.37.25-2.27.45-.05-.95-.18-2.98-.51-3.81.59-.28,1.25-.55,2.07-.74ZM48.12,48.65c.05.09.11.19.17.3.48.83,1.2,2.07,1.11,2.87-.77.19-1.49.37-2.12.51.26-1.21.53-2.44.83-3.68ZM45.95,51.49c0,.43.17,1.6.47,2.34-.08.38-.15.77-.23,1.15-.64.02-1.35.07-2.07.13,0-.01.02-.02.02-.03.08-.63.2-2.07.27-3.02.02-.24.04-.45.05-.62.53.02,1.03.03,1.49.06ZM34.1,59.16c.58-.02,1.47-.1,2.52-.19,0,.01-.02.03-.02.05-.03.93.12,3.59.51,4.66-.76-.04-1.45-.02-2.07.02-.08-.67-.7-2.37-1.23-3.4.09-.38.19-.75.3-1.14ZM33.73,60.61c.49,1.01,1.03,2.51,1.1,3.11-.13,0-.27.02-.4.03-.47.03-.92.06-1.35.06-.06,0-.1.05-.1.1,0,.06.04.11.1.1.43,0,.88-.03,1.36-.06.78-.05,1.66-.11,2.67-.06-.22.56-.6,1.58-.92,2.42l-.35.93c-.61.13-1.19.26-1.72.39-.22-.51-.89-1.95-1.31-2.38-.02-.02-.05-.03-.07-.03,0,0,0,0,0,0,.26-1.45.6-3,1-4.6ZM32.55,63.37c-.28-.57-.62-1.46-.55-2.01.32.09.63.21.92.33-.13.57-.26,1.13-.37,1.68ZM30.02,64.3c-.05.2-.11.44-.19.72-.19.7-.41,1.56-.47,2.18-.38,0-.78,0-1.19,0-.23,0-.46,0-.69,0-.22-.58-.3-1.53-.36-2.31-.03-.44-.07-.83-.12-1.1,1.02.16,2.08.34,3.01.51ZM27.61,73.27c.03.31.1.71.17,1.05.03.14.05.25.06.35-1.16.47-2.26.89-3.07,1.19-.03-.42-.13-1.16-.25-1.64,1.04-.31,2.07-.63,3.09-.96ZM32.99,79.33c.79.51,1.9,1.67,2.66,2.48-1.38-.52-2.74-1.06-4.03-1.61.4-.26.87-.56,1.37-.87ZM32.43,79.44c-.71-.47-2.65-1.3-4.67-1.3-.12,0-.25.01-.37.02.78-.37,1.81-.86,2.9-1.39.47.31,1.36.98,2.08,1.52.36.27.67.5.88.65-.28.17-.55.34-.81.51ZM35.75,77.38c-.64-.49-2.1-1.34-3.03-1.83.73-.37,1.43-.74,2.03-1.07.77.59,2.19,1.17,3.38,1.39-.71.47-1.54.99-2.38,1.51ZM38.47,75.9s0,0,0,0c.16-.11.31-.21.45-.3.19.66.96,1.8,1.73,2.21-.2.26-.41.52-.63.79-.69-.33-2.23-1.23-3.03-1.73.53-.34,1.04-.66,1.48-.96ZM72.2,69.28c-.7-.11-2.54-.39-4.21-.39-.29,0-.57.01-.84.03.59-.81,1.19-1.67,1.76-2.53.36.16.89.44,1.44.74.92.49,1.85.99,2.41,1.16-.18.32-.37.66-.57.99ZM72.87,68.1c-.53-.14-1.53-.67-2.42-1.15-.55-.29-1.06-.57-1.43-.73.48-.73.94-1.45,1.36-2.1,1.04.43,2.83,1.25,3.44,1.79-.12.52-.48,1.32-.96,2.2ZM73.94,65.73c-.65-.55-2.4-1.36-3.45-1.79.5-.81.93-1.52,1.22-2.04.41.05.83.1,1.25.15,0,.02,0,.04.01.06.56.85,1.78,1.81,2.46,2.08-.42.57-.9,1.04-1.5,1.55ZM85.56,60.53c-.82.06-3.07.21-4.5.52.56-.95,1.23-2.14,1.88-3.33,1.16.37,2.25.79,3.09,1.22-.12.46-.29,1.02-.48,1.59ZM86.13,58.75c-.84-.42-1.92-.85-3.08-1.21.49-.9.97-1.8,1.37-2.6.71.21,1.44.46,2.09.68.61.21,1.14.39,1.54.5-.74,1.04-1.47,2.05-1.91,2.64ZM88.17,55.93c-.4-.11-.96-.29-1.6-.51-.64-.22-1.36-.46-2.06-.67.35-.7.62-1.3.79-1.74,1.56.08,3.16.15,4.75.18-.45.69-1.16,1.72-1.89,2.74ZM92.08,50.87c-.88.41-1.58.8-2.24,1.35-.32-.18-1.21-.56-1.88-.85l-.31-.13c.2-.21.41-.42.64-.62.16-.14.4-.41.68-.76,1.08-.09,2.97.02,3.75.07-.27.44-.49.77-.64.95ZM92.84,49.72h-.05c-.55-.04-1.76-.11-2.81-.11-.3,0-.58,0-.83.02.89-1.13,2.19-2.95,3.34-4.62.58.15,1.18.3,1.7.43.38.09.7.17.94.24-.79,1.48-1.65,3.01-2.29,4.05ZM95.22,45.48c-.24-.06-.59-.15-.99-.25-.48-.12-1.06-.26-1.62-.41.99-1.43,1.86-2.73,2.27-3.36.75.03,1.5.06,2.27.07-.29.78-1.06,2.32-1.93,3.94ZM101.39,38.57c-.05.07-.11.14-.16.21-.33-.02-.83-.03-1.39-.03-.79,0-1.68.02-2.4.07.77-1.05,1.57-2.02,2.55-2.78.6-.19,1.51-.56,2.4-.92.84-.35,1.65-.67,2.08-.8-.44.81-1.83,2.63-3.07,4.25ZM104.58,34.08c-.39.08-1.31.45-2.27.85-.76.31-1.55.64-2.13.83.2-.34.49-.86.83-1.5.42-.77.94-1.71,1.45-2.6.7.43,2.04.97,2.7,1.09-.24.54-.45,1.01-.58,1.32ZM102.29,28.56c.09-.14.2-.3.31-.46.18-.27.38-.57.59-.89.99.1,1.96.51,2.53.85-.06.12-.13.24-.19.37-1.1.07-2.19.11-3.23.12ZM107.23,25.88c-.51.02-1.78-.14-2.91-.29-.07,0-.13-.02-.2-.03.34-.69.62-1.43.75-2.18.09-.09.17-.18.26-.27.94-.05,2.88.09,3.6.26-.58,1.1-1.16,2.05-1.51,2.5ZM103.9,25.54c-.39-.05-.74-.09-1.01-.12.57-.58,1.15-1.16,1.71-1.75-.15.64-.4,1.27-.7,1.87ZM91.67,29.88c.03.77-.22,2.12-.35,2.8l-.04.2c-.73.65-1.81,1.41-2.92,2.12-.14-.63-.49-1.56-.75-2.25-.08-.21-.15-.4-.21-.55,1.46-.72,3.03-1.5,4.26-2.31ZM85.47,31.21c-.11.8-.21,1.59-.3,2.36-.59.27-1.49.68-2.48,1.15-.1-.5-.19-1.01-.28-1.46-.08-.42-.15-.77-.19-1,1.27-.46,2.49-.87,3.25-1.05ZM74.27,36.69c.17.39.53,1.34.68,1.88-.79.31-1.69.59-2.69.85.13-.62.26-1.25.4-1.87.54-.24,1.07-.53,1.61-.86ZM71.54,40.27c-.47.04-1.16.14-1.98.28-.07-.66-.17-1.34-.26-1.95-.09-.62-.17-1.15-.2-1.54,1.24-.44,2.52-.89,3.37-1.16-.33,1.47-.64,2.93-.93,4.37ZM72.53,35.67c-.61.19-1.46.48-2.36.8-.06-.3-.12-.61-.18-.92-.12-.64-.25-1.31-.43-1.9.55-.17,1.31-.27,2.19-.37.45-.06.92-.12,1.4-.19-.21.86-.41,1.72-.61,2.58ZM59.01,41.32s-.01.03,0,.05c.17.63-.17,2.71-.48,3.86-.19.03-.37.06-.54.1,0,0,0,0,0,0,0,0,0,0,0,0-.85.19-1.54.46-2.15.74.21-.98.17-2.18.13-3.24-.01-.39-.03-.75-.03-1.08,1.01-.17,2.11-.34,3.09-.43ZM45.66,48.9s.03.02.05.02c.02,0,.04-.01.06-.02.32,0,.63,0,.91-.01-.27.4-.55,1.01-.81,1.56-.14.31-.28.6-.39.81-.83-.03-1.76-.06-2.72-.07.23-.73.45-2.04.5-2.52.83.12,1.65.2,2.4.23ZM40.62,51.38c-.18.86-1.38,3.72-1.84,4.49-.42-.14-.98-.3-1.56-.44.18-.84.21-3.15-.05-4.02.93-.02,2.15-.03,3.45-.03ZM29.83,61.66c-.29.65-.63,1.39-1.23,2.18-.68-.12-1.38-.23-2.06-.33.26-.5.28-1.33.29-2.01,0-.27,0-.5.03-.68,1.19.27,2.41.46,3.24.27-.09.18-.18.37-.27.57ZM23.13,63.41c.42-.02.98.02,1.63.09.07.92-.05,2.58-.37,3.7,0,.02,0,.03,0,.05-.92.02-1.75.05-2.38.1h0c.33-1.27.7-2.59,1.12-3.93ZM21.03,71.73c.4-.1.99-.18,1.7-.26.22.45.64,1.76.67,2.53-.93.28-1.87.55-2.81.81.1-.94.25-1.98.45-3.08ZM24.32,74.29c.12.48.22,1.26.25,1.65-.27.1-.49.18-.67.24-.62-.43-1.18-.86-1.65-1.29.69-.2,1.38-.41,2.07-.61ZM37.98,81.03c-.13-.15-.31-.34-.54-.59-.7-.76-1.75-1.88-2.12-2.55.5-.31,1-.62,1.47-.92.76.48,2.34,1.4,3.09,1.78-.63.78-1.29,1.57-1.91,2.28ZM46.25,81.19c.91.33,2.3,1.12,2.9,1.52-.34.73-1.09,1.79-2.04,2.87-.02,0-.03,0-.05-.01-.58-.7-1.76-1.92-2.47-2.35.53-.64,1.11-1.34,1.66-2.03ZM51.16,84.93c-.53-.27-1.56-.79-2.61-.84.36-.51.64-.98.81-1.36.25-.22.8-.73,1.42-1.33l.31.17c.71.39,1.59.88,2.07,1.32-.41.41-.83.83-1.23,1.24-.03.01-.06.03-.07.07-.24.25-.48.5-.71.74ZM61.7,83.04c-.21-.16-.89-.57-1.61-1-.54-.32-1.1-.66-1.4-.86.31-.47.55-.84.68-1.05,1.3.28,2.57.54,3.81.77-.35.44-.89,1.23-1.47,2.14ZM60.9,79.91c.26-.3.53-.63.82-.98.59.22,1.39.8,1.88,1.15.14.1.26.18.33.23,0,0,0,0,0,0-.04.06-.07.11-.1.17-.96-.18-1.94-.37-2.93-.57ZM75.02,77.22c-.69-.07-1.95.15-3.06.35-.61.11-1.18.21-1.6.25.72-.8,1.66-2.37,2.24-3.64.9.38,2.8.71,3.8.81-.41.7-.9,1.48-1.39,2.23ZM70.27,72.33s.02-.02.02-.03c0,0,0,0,0,0,0,0,0,0,0,0,.29-.32.62-.72.95-1.19.8-.11,2.22-.49,3.6-.85.79-.21,1.53-.41,2.15-.55-.21,1.02-.96,2.56-1.3,3.23-1.78-.15-3.6-.36-5.42-.6ZM77.07,69.47c-.64.15-1.43.36-2.27.58-1.27.34-2.57.69-3.38.82,1.14-1.63,2.32-3.8,2.6-4.89,1.05.14,2.25.63,3.32,1.06.39.16.76.31,1.11.43-.08.11-.15.21-.23.32-.48.68-.9,1.27-1.15,1.68ZM78.57,67.29c-.35-.13-.74-.28-1.15-.45-1.03-.42-2.2-.88-3.24-1.05.73-.64,1.3-1.24,1.82-2.07,1.23.14,3.58.66,4.14,1.04.05.03.11.02.14-.03-.51.84-1.13,1.74-1.71,2.56ZM84.35,64.78c-.94-.44-1.74-1.28-2.18-1.99,1.06.06,2.11.1,3.15.14-.15.63-.51,1.26-.96,1.86ZM86.4,58.74c.6-.8,1.6-2.2,2.5-3.48.32.13.65.25.97.38.69.26,1.34.51,1.92.8-.13.58-.33,1.24-.57,1.9-1.77.09-3.78.26-4.81.4ZM92.1,56.25c.28-.47.53-1.11.82-1.83.15-.38.31-.78.48-1.19,1.14,0,2.26-.01,3.35-.04-.3.55-.73,1.37-1.17,2.23-.12.23-.24.47-.36.7-1.25.02-2.45.07-3.12.13ZM95.56,50c-.52.62-1.13,1.49-1.63,2.33-.4-.2-.68-.5-.94-.8-.22-.25-.43-.47-.69-.62.54-.72,1.86-3.01,3.03-5.2,0,0,.02,0,.03,0,.97-.13,1.94-.03,2.96.31-1.02,1.62-2.08,3.18-2.76,3.98ZM99.81,41.01c.1-.14.21-.29.33-.46,1.07.08,3.73-.27,4.83-.48-.11.26-.22.5-.33.75-1.6.11-3.23.17-4.84.19ZM109.01,32.06s-.04-.04-.07-.04c-.35-.02-1.52-.09-2.43-.09-.29,0-.55,0-.75.02.3-.65.61-1.33.88-1.93.22-.48.41-.9.54-1.18,1.26-.11,2.51-.24,3.67-.39-.43.92-1.1,2.25-1.82,3.6ZM105.76,28.42c.18-.36.37-.69.57-1,0,0,.02,0,.02,0l.33-.07c1.06-.24,2.76-.62,3.54-.92-.24.62-.49,1.2-.69,1.64-1.22.14-2.5.26-3.78.34ZM108.84,23.19c-.65-.16-2.24-.28-3.28-.28-.08,0-.15,0-.22,0,1.34-1.4,2.65-2.8,3.93-4.21.42.03.89.03,1.41.01-.16.98-.99,2.85-1.84,4.47ZM114.71,14.87c-.29-.2-.92-.54-1.42-.74.51-.6,1.01-1.2,1.51-1.8.24,0,.51-.03.82-.08-.06.17-.12.35-.18.56-.2.62-.44,1.36-.72,2.06ZM110.75,16.24c-.63.72-1.28,1.44-1.93,2.16-.12-.51-.23-1.05-.33-1.62.7-.78,1.76-1.74,2.42-2.19-.02.56-.08,1.12-.16,1.65ZM108.38,18.88c-.95,1.03-1.91,2.07-2.9,3.1.04-.62,0-1.43-.18-1.89,1.09-.61,2.23-1.2,2.99-1.54.03.11.06.23.09.34ZM105.26,22.21c-.68.71-1.37,1.42-2.06,2.13-.31-.72-.65-1.86-.66-2.53.54-.42,1.52-1.03,2.58-1.63.19.47.21,1.39.14,2.03ZM100.96,22.66c-.86.54-1.81,1.06-2.55,1.41.09-1.21.21-2.44.35-3.62l.26-.12c.72-.33,1.87-.87,3.01-1.31-.33.83-.89,2.75-1.06,3.64ZM97.97,22.68c-.26.12-.55.25-.86.4-.32.15-.67.31-1.01.47.02-.73-.14-2.25-.22-2.78.79-.54,1.63-1.08,2.48-1.52-.15,1.1-.28,2.26-.39,3.43ZM97.2,23.27c.27-.13.52-.24.75-.35-.09.99-.16,1.99-.2,2.95-.26.21-.56.43-.89.65-.51-.6-1.23-1.89-1.38-2.46.57-.26,1.17-.54,1.71-.79ZM95.3,24.15c.18.64.9,1.9,1.39,2.48-1.24.81-2.77,1.58-3.59,1.97.46-1.19.74-3.2.8-3.82.38-.17.87-.39,1.4-.63ZM92.81,28.74c-.77.72-1.95,1.43-3.23,2.11.15-.94.14-2.19.13-3.04,0-.2,0-.37,0-.5,0,0,0-.02-.01-.03.24-.15.49-.3.73-.46,1.35-.84,2.62-1.64,3.24-1.95-.09.77-.38,2.8-.86,3.86ZM90.32,26.66c-.56.35-1.13.7-1.66,1.03.12-1.05,0-3.08-.09-3.79,1.31-.36,2.75-.71,3.95-.96-.16.44-.51,1.19-.83,1.87-.25.54-.49,1.05-.62,1.38-.25.15-.49.31-.75.47ZM88.37,23.96c.1.75.21,2.94.06,3.87-.82.5-1.56.94-2.08,1.2.26-1.6.57-3.2.93-4.77.34-.1.71-.21,1.09-.31ZM79.11,31.14c.77-.33,1.66-.77,2.6-1.23.04-.02.09-.04.13-.07.03.28.08.54.12.78.1.49.18.93.05,1.49-1.87.68-3.81,1.45-4.55,1.77-.09-.27-.29-.51-.51-.76-.26-.3-.51-.6-.64-1,.85-.23,1.81-.55,2.8-.98ZM76.11,32.18c.14.44.43.78.68,1.08.22.26.41.48.48.73-1.5,1.49-3.04,2.6-4.57,3.3.35-1.58.72-3.17,1.1-4.74.56-.02,1.36-.14,2.29-.38ZM73.19,32.87c-.51.08-1,.14-1.48.2-.84.1-1.56.2-2.12.35.21-.58.5-1.63.78-2.73.31-.07.63-.15.97-.23.98-.23,1.98-.46,2.63-.63-.27.99-.53,2.01-.78,3.03ZM69.35,33.48c-.43,0-.86,0-1.28,0,.33-.97.6-1.85.7-2.38.24-.07.74-.2,1.37-.35-.3,1.14-.6,2.22-.79,2.72ZM45.83,45.6c.06.5-.04,1.42-.12,2.17-.04.35-.07.67-.09.93-1.3-.04-2.83-.27-4.24-.57.39-.56.75-1.25,1.09-1.92.31-.62.61-1.2.9-1.58,1,.37,1.92.73,2.47.98ZM38.07,47.42c.22.08.46.17.72.25.02.13.05.38.1.71.13.85.34,2.24.33,2.79-.84,0-1.61.01-2.21.03,0,0,0,0,0,0,0,0,0,0,0,0-.15,0-.29,0-.42.01.46-1.26.95-2.53,1.46-3.79ZM33.65,52.39c.05.36.1.81.14,1.29.04.45.09.92.14,1.32-.54.06-1.12.16-1.64.24-.72-.19-2.14-.26-3.6-.25.71-.86,1.55-1.95,1.81-2.43,1.08-.04,2.19-.11,3.14-.17ZM32.18,55.43c-.05.52-.4,1.5-.69,2.3-.08.21-.15.41-.21.59-.02,0-.04,0-.07,0-1.21,0-2.6.03-3.82.06.1-.75.1-2.33-.21-3.14,1.84-.09,4-.05,4.99.19ZM29.48,58.54s0,0,0,0c.36.66.47,1.26.58,1.85.03.16.06.31.09.47-1.03.29-2.91-.15-4.35-.51,0-.07,0-.14,0-.21.01-.44.02-.89-.22-1.5,1.05-.04,2.49-.09,3.89-.11ZM25.37,58.66c.25.61.24,1.04.23,1.49,0,.05,0,.11,0,.16-.52-.13-.98-.24-1.34-.3.15-.44.31-.88.47-1.32.19,0,.4-.02.64-.03ZM20.62,65.2c.52.03,1.01.08,1.38.12-.26.92-.5,1.82-.72,2.7-.13,0-.26,0-.38,0-.13-.63-.33-2.16-.28-2.82ZM18.58,71.26c.75.04,1.46.09,1.96.13-.13.69-.24,1.35-.33,1.98-.43.02-1.13.06-1.98.11.03-.24.09-.54.15-.86.1-.51.19-1.04.21-1.36ZM20.18,73.58c-.07.48-.12.95-.16,1.39-.74.21-1.49.41-2.23.62-.33-.48-.73-1.41-.88-1.81,1.41-.09,2.63-.16,3.27-.2ZM20.32,75.45s.03,0,.05-.01c.43-.12.86-.24,1.29-.36.03.02.05.05.08.07-.98.44-2.89,1.23-4.81,2.01-.08-.16-.19-.44-.27-.7,1.24-.33,2.46-.66,3.67-1ZM19.3,76.4c.08.59.53,1.59.72,1.97-.52.37-1.06.74-1.58,1.1-.57-.36-2.01-1.23-2.79-1.58,1.21-.49,2.51-1.01,3.65-1.48ZM29.72,82.18c.35.49,1.28,1.27,1.85,1.75-.18.34-.41.77-.69,1.25-.51-.26-2.48-.78-3.45-.98.66-.56,1.53-1.32,2.28-2.02ZM35.15,86.04c-.07.06-.13.12-.19.18-1.17-.54-2.58-1.46-3.1-2.27.29-.1.78-.24,1.35-.4,1.13-.31,2.4-.66,2.95-.99.57.21,1.14.42,1.72.62-.43.71-1.59,1.8-2.72,2.85ZM37.08,82.34c.37-.39.77-.84,1.2-1.34.62.49,1.69,1.39,2.26,1.97-.13.14-.27.29-.41.44-1.02-.34-2.04-.7-3.05-1.07ZM41.44,82.35c.74.24,1.37,1.03,2.01,1.9-.05.06-.1.12-.15.18-.98-.31-1.96-.62-2.95-.96.38-.41.75-.79,1.1-1.12ZM44.45,83.38c.61.35,1.63,1.37,2.24,2.08-1.04-.3-2.1-.62-3.18-.96.29-.34.6-.71.94-1.12ZM48.58,86.55c-.09.15-.23.39-.4.68-.14.25-.3.53-.47.82-.67-.15-1.45-.21-2.27-.28.12-.41.24-.81.34-1.14.1-.33.18-.59.22-.76,0-.02,0-.04,0-.07.88.26,1.75.51,2.59.74ZM50.1,86.41c.12-.13.24-.27.37-.42.78.19,1.97.68,2.81,1.23-.98-.24-2.05-.51-3.18-.81ZM53.81,87.34c-.83-.68-2.25-1.28-3.18-1.53.42-.46.89-.96,1.4-1.47,1.07.19,2.76.5,3.52.98-.28.39-.51.7-.65.87,0,0-.01.02-.02.03-.16.39-.37.82-.61,1.24-.15-.03-.31-.07-.46-.11ZM65.44,80.77c1.48-.37,2.79-.6,3.66-.65-.18.36-.37.74-.57,1.14-.98-.14-2.01-.3-3.08-.48ZM80.07,75.54c-1.37-.48-2.38-.91-3.01-1.28.14-.25.26-.47.35-.67,1.37.1,2.7.16,3.99.2-.38.66-.86,1.24-1.33,1.75ZM79.85,73.2c-1.28-.06-2.59-.14-3.93-.26.37-.73,1.12-2.27,1.3-3.28.44,0,1.04-.07,1.68-.16.89-.12,1.89-.25,2.62-.17-.53,1.4-1.17,2.87-1.68,3.87ZM81.6,69.13c-.17-.02-.36-.03-.56-.03-.68,0-1.46.1-2.17.2-.59.08-1.14.15-1.55.16.25-.4.63-.93,1.07-1.55.42-.59.87-1.23,1.3-1.86.67.04,1.34.36,1.99.68.22.11.43.21.64.3-.18.61-.43,1.34-.72,2.11ZM89.65,62.49c.5-.99,1.18-2.5,1.71-3.95,1.06-.05,2.02-.07,2.59-.02-.05.37-.11,1.03-.18,1.74-.08.79-.17,1.66-.23,2.18-1.25.05-2.55.07-3.89.06ZM102.08,46.4s0,.02-.01.03c0,0,0,0,0,0,0,0,0,0,0,0,0,0,0,0,0,0-.13.82-.45,2-.84,3.14-.06,0-.13,0-.22,0-.46,0-1.27.08-2.17.17-1.04.11-2.21.22-2.99.22.9-1.11,2.35-3.31,3.55-5.3,1.07-.28,2.62-.08,3.67.28-.39.61-.75,1.14-.99,1.45ZM103.19,44.76c-.73-.25-1.71-.44-2.62-.44-.36,0-.7.04-1.02.1.69-1.15,1.28-2.21,1.62-2.9,1.33-.03,2.66-.1,3.97-.2-.35.79-1.19,2.24-1.95,3.44ZM112.94,27.62c-.96.15-2.03.29-3.16.42.48-1.09,1.17-2.73,1.32-4.04.79.27,2.59.51,3.34.54-.32,1-.74,2.05-1.51,3.08ZM114.67,15.52c.38-.86.7-1.84.96-2.64.08-.24.15-.46.22-.66.55-.09,1.17-.21,1.78-.35-.55.81-1.15,2.31-1.42,3.2-.5.14-1.02.29-1.54.45ZM114.98,12.11c.95-1.16,1.86-2.31,2.74-3.44.25.42.55.78.9,1.09-.88.81-1.69,1.62-1.96,2.11-.63.13-1.21.22-1.67.25ZM114.01,11.28c-.2.15-.44.32-.71.5-.66.46-1.47,1.03-2.16,1.62,0-.54-.03-1.06-.06-1.55.54-.37,2.04-1.42,2.73-2.24.04.56.1,1.14.2,1.67ZM110.92,14.39s-.02,0-.04,0c-.02,0-.04,0-.06.02-.64.43-1.66,1.35-2.38,2.12-.14-.88-.24-1.79-.3-2.68,1.08-.87,1.93-1.71,2.68-2.45.07.89.12,1.95.09,3ZM108.25,18.33c-.76.34-1.9.93-3,1.54-.08-.47-.29-1.03-.65-1.68.44-.39,1.63-1.25,2.6-1.94.22-.16.42-.3.6-.43.11.88.26,1.73.44,2.52ZM94.53,21.71s0,0,0,0c.11-.08.23-.16.34-.24.26-.18.53-.37.81-.56.09.69.23,2.16.19,2.75-.8.37-1.59.73-2.13.97-.42.18-1.33.73-2.38,1.38.13-.31.31-.69.5-1.1.37-.79.75-1.61.88-2.03.54-.31,1.14-.72,1.77-1.16ZM85.09,21.52c.01.78.03,1.73.38,2.36-1.35.6-2.92,1.42-3.59,1.78-.18-1.12-.04-3.48.04-4.55.61-.17,1.87-.38,3.13-.54,0,.02-.01.03-.01.05.04.2.05.53.05.9ZM79.48,26.24c-.02.8-.25,3.42-.5,4.74-1.15.5-2.25.85-3.18,1.07.11-1.29-.44-3.19-.76-4.01.07-.23.14-.46.2-.69.95-.38,2.66-.82,4.24-1.1ZM66.98,29.55c-.19.3-.39.61-.64.97-.53-.09-1.03-.18-1.38-.23.3-.87.59-1.69.86-2.45.39.04.75.11,1.09.18.33.07.64.13.97.17-.36.51-.63.93-.91,1.36ZM37.63,45.56s.02.02.04.02c0,0,.01,0,.02,0,.21.04.39.08.54.1-.48,1.11-.93,2.22-1.36,3.34-.31-.04-.71-.07-1.15-.1.1-1.16.81-2.75,1.52-3.44.14.03.28.06.4.08ZM35.5,48.9c-.87-.04-1.86-.06-2.54-.07.22-.41.48-.86.74-1.31.54-.94,1.1-1.92,1.32-2.46,0-.02,0-.04,0-.06.69.16,1.38.3,1.97.42-.72.77-1.39,2.31-1.49,3.48ZM27.2,51.33c-.3.63-.59,1.28-.87,1.93-.27-.14-.64-.37-1.05-.63.05-.05.09-.09.14-.14.37-.36.83-.81,1.1-1.32.26.07.49.12.68.16ZM27.23,52.54c.77.07,1.87.07,3.03.03-.33.53-1.16,1.6-1.84,2.42-.46,0-.92.02-1.37.05-.01,0-.02,0-.03,0-.02,0-.03,0-.05.01,0,0,0,0,0,0-.3.02-.59.04-.86.06.36-.87.73-1.72,1.11-2.56ZM26.04,55.32c.29-.03.61-.05.93-.07.31.72.34,2.32.22,3.13-.99.03-1.84.06-2.38.09.39-1.06.8-2.11,1.23-3.15ZM17.09,65.11c.21,0,.49-.01.81-.01,0,0,.02,0,.03,0,.72,0,1.65.03,2.5.08-.05.68.15,2.17.27,2.84-.86,0-1.62.02-2.4.28-.72-.2-1.48-.37-2.22-.5.06-.51.42-1.34.72-2.01.11-.24.21-.47.29-.67ZM18.17,68.48c-.15.7-.59,2.04-.85,2.53-.8-.02-1.53,0-1.97.05-.23-.73-.7-2.5-.78-3.29,1.15.15,2.41.4,3.6.72ZM15.34,71.27c.6-.09,1.84-.07,3.03-.02-.01.31-.11.85-.2,1.34-.06.34-.12.67-.16.91-1.3.08-2.9.19-4.39.31.12-.16.24-.33.38-.51.44-.58.94-1.23,1.34-2.03ZM16.69,73.79c.13.39.54,1.32.88,1.85-1.28.35-2.57.68-3.88,1.01.34-.74.83-2.11,1-2.73.67-.05,1.35-.1,1.99-.14ZM16.44,76.51c.08.26.19.55.28.72-1.53.62-3.04,1.22-4.06,1.62.03-.38,0-.94-.1-1.35,1.31-.32,2.6-.66,3.89-1ZM13.46,78.76c.23.33.47,1.05.66,1.74-.67-.41-1.32-.82-1.93-1.24.34-.13.77-.3,1.27-.5ZM17.49,80.37c.26.07.54.13.85.2.72.16,1.52.34,2.35.68-.25.42-.61.88-1,1.32-.65-.2-1.91-.43-2.87-.54-.34-.18-.68-.37-1.01-.55.5-.32,1.07-.7,1.68-1.11ZM26.29,85.39c.6.38,1.44.99,2.03,1.48-.82-.26-1.63-.54-2.44-.83.14-.22.27-.43.41-.65ZM33.84,87.58c.91.07,3.92.57,4.68.72-.18.36-.3.65-.38.89-1.63-.24-3.28-.56-4.92-.95.18-.2.39-.42.62-.66ZM43.52,85.14c0-.06-.04-.11-.1-.11h0c-.06,0-.1.04-.1.1-.02.45-.44,1.49-.92,2.51,0,0,0,0,0,0-.31-.04-.81-.07-1.34-.1-.64-.04-1.35-.09-1.8-.15.45-.75,1.07-1.69,1.96-2.87.03-.05.03-.11-.02-.15-.02-.01-.04-.02-.06-.02-.03,0-.06.01-.08.04-.59.79-1.07,1.48-1.46,2.07-.27-.15-.9-.44-1.56-.75-.63-.29-1.28-.59-1.48-.71,0,0,0,0,0,0,.68-.66,1.25-1.28,1.53-1.75,2.61.92,5.26,1.77,7.77,2.51-.02.01-.03.03-.04.06-.04.16-.12.43-.22.75-.12.38-.25.82-.38,1.27,0,0,0,0,0,.02,0,0,0,0,0,0-.1.37-.2.74-.27,1.08-.65-.22-1.77-.42-2.67-.55.61-1.19,1.24-2.65,1.27-3.25ZM54.2,87.98c.68.16,1.31.29,1.88.41-.84.18-1.68.34-2.51.48.21-.26.43-.56.63-.88ZM64.02,85.24s.02.02.03.02c.45.11.95.3,1.31.48-.79.28-1.57.55-2.36.81.29-.36.64-.82,1.02-1.31ZM68.01,82.68c.39.2.9.28,1.45.24-.02.32-.11.88-.23,1.31-.87.37-1.75.73-2.64,1.06.47-.85.96-1.74,1.42-2.6ZM72,82.5c.06-.1.13-.19.19-.29.43.03.85.06,1.24.08-.63.31-1.26.62-1.89.91.13-.21.29-.45.46-.7ZM78.87,77.17c.7.15,2.34.04,3.45-.09-1.41.96-2.86,1.88-4.34,2.74.42-.81.83-1.7.89-2.65ZM82.68,76.82c-1.05.14-2.93.3-3.71.16.17-.18.36-.38.57-.59.69-.69,1.53-1.54,2.11-2.59,1.2.03,2.35.03,3.45,0-.08.13-.17.28-.27.43-.34.55-.76,1.21-1.01,1.79-.38.27-.75.54-1.14.8ZM85.2,71.05c-.57-.24-1.83-.35-2.96-.44-.35-.03-.68-.06-.96-.08.16-.4.32-.8.47-1.2.02-.02.04-.04.04-.07,0,0,0-.02,0-.02.3-.8.56-1.56.75-2.19.49-.14,1.14-.38,1.83-.63,1.23-.45,2.6-.95,3.58-1.12-.67,1.78-1.73,4.01-2.74,5.75ZM88.65,63.77c1.02.36,2.69.63,3.63.75-.09.25-.2.52-.3.79-.38.98-.78,2.03-1.05,2.96-.98.05-2.78.07-4.06.04.8-1.68,1.49-3.38,1.79-4.54ZM92.17,65.39s.03-.09.05-.13c1.01-.22,2.21-.39,3-.42-1.43,1.75-2.91,3.44-4.41,5.01.08-1.14.78-2.95,1.36-4.46ZM97.3,62.2c-.19.02-.38.03-.57.05,0-.05.02-.09.03-.15.17-.96.43-2.44.73-3.42.71-.17,1.22-.24,1.7-.31.32-.04.66-.09,1.05-.17-.94,1.33-1.93,2.67-2.94,3.99ZM100.42,57.96c-.48.1-.86.16-1.25.21-.46.06-.95.13-1.6.28.06-.17.11-.31.17-.43.16-.34.58-.95,1.07-1.65.41-.59.86-1.25,1.25-1.87.64.05,1.13.14,1.6.22.28.05.57.1.89.15-.68,1.02-1.38,2.06-2.12,3.1ZM107.45,46.81c-1.09-.03-3.9-.14-5.11-.42.48-.65,1.37-2.05,2.09-3.29,0,.03.01.07.04.09.62.42,1.86.52,2.85.6.41.03.76.06.99.11-.14.8-.3,1.58-.44,2.17-.13.24-.27.49-.41.74ZM108.34,43.7c-.25-.05-.6-.08-1.01-.11-.91-.07-2.17-.17-2.75-.56-.02-.01-.04-.02-.06-.02-.02,0-.03,0-.04.01.38-.67.71-1.29.89-1.71,1.14-.09,2.26-.21,3.35-.35-.05.62-.2,1.68-.38,2.74ZM110.74,40.09c-.28.05-.55.1-.83.14.14-.82.41-1.83.7-2.75.19-.07.48-.17.8-.29.21-.08.43-.16.64-.24-.44,1.08-.88,2.14-1.31,3.14ZM112.16,36.69c-.26.1-.55.2-.82.3-.24.09-.47.18-.65.24.2-.61.41-1.18.6-1.63.14-.32.36-.89.65-1.62.18-.45.38-.96.59-1.48.38.17.74.3,1.11.38-.48,1.28-.98,2.56-1.48,3.81ZM116.02,26.31s-.08-.02-.12-.03c-.42-.1-.98-.24-1.65-.24-.05,0-.09,0-.14,0,.29-.65.5-1.3.69-1.93.07-.24.2-.59.36-1.01l.25.06c.57.14,1.11.27,1.55.42-.29.86-.6,1.77-.93,2.72ZM114.6,24.06c-.03.09-.06.19-.09.28-.69-.01-2.53-.25-3.32-.52.47-.62,1.64-2.85,2.34-4.35.35.48,1.13,1.29,1.71,1.9l.27.29c-.42,1.02-.77,1.93-.92,2.41ZM115.6,21.44l-.21-.22c-.62-.65-1.46-1.53-1.76-1.97.16-.35.29-.65.37-.86,1.08-.16,2.16-.36,3.11-.55-.13.31-.29.68-.46,1.11-.32.77-.7,1.66-1.04,2.5ZM119.73,14.11c-.2.05-.45.12-.76.2-.67.18-1.56.41-2.52.68.32-.99.97-2.55,1.49-3.2.98-.23,1.91-.49,2.5-.67-.23,1-.46,2-.71,2.99ZM120.49,10.89c-.73.23-2.21.63-3.56.92.69-.98,3.01-2.99,4.25-4.01-.23,1.02-.46,2.06-.69,3.09ZM121.27,7.4s0,.04-.01.07c-.52.42-1.53,1.27-2.49,2.14-.36-.31-.67-.69-.92-1.13.73-.96,1.43-1.91,2.1-2.84.43.03,1.04.11,1.48.18.07,0,.13.02.18.03-.12.52-.23,1.04-.34,1.56ZM119.07,5.93c-.04-.11-.08-.22-.13-.34-.12-.32-.24-.65-.34-.88,1.05-.75,2.04-1.52,2.9-2.29-.76,1.15-1.57,2.32-2.43,3.51ZM114.06,10.17c-.1-1.04-.11-2.09-.07-2.52.94-.54,1.88-1.12,2.8-1.72-.62,1.24-1.97,3.39-2.73,4.24ZM113.79,9.3c-.55.76-2.07,1.86-2.73,2.31-.04-.57-.09-1.08-.13-1.49-.03-.3-.05-.55-.07-.75.93-.48,1.91-1.02,2.91-1.6-.02.35-.02.9,0,1.52ZM110.73,10.15c.03.28.06.61.09.97,0,0,0,0,0,0l-.08.08c-.73.73-1.56,1.54-2.6,2.39-.06-1-.06-1.96,0-2.78,0-.02,0-.04,0-.06.76-.35,1.62-.78,2.53-1.25.01.18.04.41.06.66ZM98.97,15.57c-.09.05-.19.11-.29.16-.36-.24-.69-.6-.94-1.03.51-.17,1.03-.34,1.53-.51-.1.4-.21.87-.31,1.38ZM94.38,21.56c-.56.39-1.09.75-1.57,1.04.03-.94-1-2.72-1.59-3.45.74-.14,1.43-.31,2.01-.52.47-.17,1.19-.49,1.98-.87-.32,1.08-.73,3.16-.83,3.8ZM87.82,20.11c-.34,0-.77.04-1.26.08-.14-.83-.19-1.46-.15-2.06.78-.25,1.56-.5,2.35-.74-.33.86-.64,1.77-.93,2.71ZM81.72,20.96c-.37.2-.88.43-1.45.65.08-.59.1-1.08.05-1.44.58-.2,1.16-.4,1.74-.6-.18.45-.29.92-.33,1.39ZM76.82,22.55c.62,0,1.28-.11,1.92-.26.24.56-.06,2.68-.38,3.95-1.17.25-2.3.56-3.06.84.49-1.64,1-3.17,1.51-4.53ZM73.19,25.19c.01.45.02.91-.04,1.4-.74.22-1.53.49-2.24.73-.47.16-.9.31-1.26.42.27-.6.25-1.28.23-1.94-.02-.66-.04-1.29.23-1.8.9-.05,2.05-.18,3.14-.33-.09.53-.08,1.02-.06,1.51ZM69.91,23.82c.83-.29,1.66-.58,2.51-.88-.08.25-.18.5-.26.68-.82.1-1.61.17-2.25.2ZM65.6,26.89c-.95.14-2.62.2-3.99.14,1.61-.69,3.18-1.33,4.64-1.89-.2.51-.41,1.09-.65,1.75ZM51.97,34.28c-1.11.1-4.22.3-5.7.26,2.14-1.21,4.63-2.51,7.24-3.79-.54,1.13-1.05,2.31-1.54,3.54ZM43.74,42.21c-1.24-.24-1.8-.44-2.91-.86.56-1.12,1.15-2.22,1.75-3.3,1.12.07,2.77.61,3.69.92-1.19,1.44-2.04,2.53-2.53,3.24ZM41.25,39.35c-.29-.07-.58-.18-.9-.31-.28-.11-.59-.23-.94-.34,1.09-.68,2.21-1.37,3.38-2.09-.53.89-1.04,1.81-1.53,2.74ZM28.61,48.47c-.3.03-.83.07-1.4.1,0,0,0,0,0,0,0,0,0,0,0,0-.4.02-.83.03-1.21.03,1.68-1.48,3.29-2.81,4.89-4.04-.77,1.19-1.54,2.5-2.28,3.91ZM23.81,50.6c.63.03,1.61.29,2.41.5.03,0,.06.02.09.02-.26.46-.68.88-1.03,1.22-.06.06-.12.12-.18.17-.7-.46-1.46-.99-1.9-1.35.21-.19.41-.38.61-.57ZM26.24,53.45c-.29.66-.57,1.34-.84,2.01-.24-.21-.55-.51-.89-.85,0-.03-.02-.05-.05-.07-.01,0-.02,0-.03,0-.19-.18-.38-.38-.58-.57.43-.74.58-1.04.75-1.55.62.42,1.24.81,1.64,1.02ZM12.62,67.61c.52,0,1.11.05,1.74.13.06.79.52,2.5.76,3.28-.59-.19-1.35-.33-2.09-.43,0,0,0,0,0,0,0,0,0,0,0,0-.45-.06-.9-.11-1.3-.15.27-.96.57-1.9.89-2.82ZM11.06,73.01c.64-.61,1.61-1.6,2.02-2.22.74.1,1.49.24,2.05.44-.38.76-.86,1.38-1.29,1.94-.18.23-.35.45-.49.66-.94.08-1.82.16-2.54.25.08-.36.16-.71.24-1.06ZM10.78,74.29c1-.12,2.34-.24,3.7-.34-.2.69-.72,2.13-1.04,2.78-.7.18-1.4.35-2.1.52-.14-.51-.56-1.2-.83-1.63.08-.45.18-.89.27-1.33ZM44.33,89.67c-.89,0-1.8-.04-2.72-.1.16-.27.34-.61.54-.98,1.26.19,2.22.39,2.73.56-.04.19-.06.37-.07.52-.16,0-.31,0-.47,0h0ZM84.47,75.55c-.1.07-.2.15-.3.22.24-.48.56-.99.84-1.42.12-.2.24-.38.34-.54.47-.01.94-.03,1.39-.06-.75.65-1.5,1.25-2.25,1.81ZM88.64,72c-1.01-.82-1.96-1.36-2.85-1.6.33-.6.66-1.24.97-1.89,1.14.03,2.99.03,4.1-.03-.16.6-.26,1.14-.26,1.57-.65.67-1.3,1.32-1.96,1.95ZM108.65,44.57c-.13.26-.28.53-.42.81.19-.89.38-1.96.51-2.89.27.05.6.08.88.1-.33.7-.65,1.36-.97,1.98ZM117.01,23.39c-.45-.16-.99-.29-1.56-.43l-.22-.05c.44-1.13,1.09-2.67,1.6-3.89.21-.49.39-.92.52-1.24.57-.12,1.08-.24,1.51-.36-.09.34-.19.68-.29,1.02-.37,1.26-.91,2.97-1.57,4.95ZM106.65,11.4c.28-.12.6-.26.94-.41-.02.37-.03.76-.03,1.17-.16.14-.33.28-.51.43-.63.54-1.32,1.12-2,1.56-.05-.15-.1-.3-.16-.46-.16-.49-.33-.99-.5-1.36.76-.3,1.51-.6,2.26-.92ZM92.81,16.19c.77-.22,1.53-.44,2.28-.67-.11.71.01,1.51.16,1.98-.85.41-1.61.75-2.1.92-.32.12-.68.22-1.07.32-.07-.9,0-1.64.24-2.42.16-.05.32-.09.48-.14ZM74.4,22.24c.76-.27,1.52-.54,2.28-.81-.2.49-.4,1.01-.59,1.55-.56.13-1.59.31-2.71.47,0,0,0,0,0,0,0,0,0,0,0,0-.32.05-.64.09-.97.13.09-.21.19-.47.26-.74.58-.2,1.15-.41,1.74-.61ZM44.53,35.56c.45-.27.92-.55,1.41-.83.53.04,1.42.02,2.37-.01-.44.68-1.79,3.15-1.95,4.06-1.27-.43-2.65-.84-3.67-.93.35-.62.71-1.23,1.08-1.83.25-.15.5-.3.75-.46ZM22.83,51.51c.07-.07.14-.13.21-.2.34.26.84.63,1.38,1-.17.51-.31.8-.73,1.52-.62-.59-1.27-1.14-1.79-1.39.31-.31.61-.62.93-.92ZM21.74,52.59c.24.1.53.3.83.53-.11.49-.62,2.16-1.04,2.76,0,0,0,.02,0,.03-.09-.07-.18-.15-.26-.22-.49-.41-.96-.79-1.35-1.09.58-.69,1.19-1.37,1.82-2.02Z" fill="#bad469"/></g></svg>