<?xml version="1.0" encoding="UTF-8"?><svg id="uuid-17c045b2-1022-4fda-9b67-652c1dd8e3ce" xmlns="http://www.w3.org/2000/svg" viewBox="0 0 280.2 268.9"><path d="M232.6,161.6H88c-1.6,0-3.1-1.1-3.5-2.7l-29.2-109.1c-.3-1.1-.1-2.3.6-3.2.7-.9,1.8-1.4,2.9-1.4h148c1,0,2,.4,2.6,1.1.7.7,1,1.7,1,2.7,0,.6-.1,1.2-.1,1.7,0,17.2,14,31.3,31.3,31.3,4.7,0,9.2-1,13.3-3,1.2-.6,2.7-.4,3.8.4,1.1.8,1.6,2.2,1.4,3.5l-11.4,63.1c-1.7,9.5-8,15.6-16.1,15.6ZM90.8,154.4h141.8c5.3,0,8.1-4.9,8.9-9.5l10.3-56.8c-3.3.9-6.7,1.4-10.2,1.4-20.7,0-37.6-16.4-38.5-36.8H63.6l27.2,101.7Z"/><path d="M58.8,52.5c-1.6,0-3.1-1.1-3.5-2.7l-9.3-34.8h-10.7c-2,0-3.6-1.6-3.6-3.6s1.6-3.6,3.6-3.6h13.5c1.6,0,3.1,1.1,3.5,2.7l10.1,37.5c.5,1.9-.6,3.9-2.6,4.5h-1Z"/><path d="M265.7,205.4H87.3c-14.1,0-25.5-11.5-25.5-25.5s11.5-25.5,25.5-25.5c2,0,3.6,1.6,3.6,3.6s-1.6,3.6-3.6,3.6c-10.1,0-18.3,8.2-18.3,18.3s8.2,18.3,18.3,18.3h178.3c2,0,3.6,1.6,3.6,3.6.1,2-1.5,3.6-3.5,3.6Z"/><path d="M29.6,22.6H9.3C4.2,22.6,0,18.4,0,13.3v-4C0,4.2,4.2,0,9.3,0h20.3c5.1,0,9.3,4.2,9.3,9.3v4c0,5.1-4.2,9.3-9.3,9.3ZM9.4,7.3c-1.1,0-2,.9-2,2v4c0,1.1.9,2,2,2h20.3c1.1,0,2-.9,2-2v-4c0-1.1-.9-2-2-2H9.4Z"/><path d="M118.9,268.9c-15.4,0-27.9-12.5-27.9-27.9s12.5-27.9,27.9-27.9,27.9,12.5,27.9,27.9-12.5,27.9-27.9,27.9ZM118.9,220.4c-11.4,0-20.6,9.2-20.6,20.6s9.2,20.6,20.6,20.6,20.6-9.2,20.6-20.6c.1-11.4-9.2-20.6-20.6-20.6Z" fill="#b06b54"/><path d="M215.2,268.9c-15.4,0-27.9-12.5-27.9-27.9s12.5-27.9,27.9-27.9,27.9,12.5,27.9,27.9-12.5,27.9-27.9,27.9ZM215.2,220.4c-11.4,0-20.6,9.2-20.6,20.6s9.2,20.6,20.6,20.6,20.6-9.2,20.6-20.6c.1-11.4-9.2-20.6-20.6-20.6Z"/><path d="M156.6,142.5c-2,0-3.6-1.6-3.6-3.6V63.2c0-2,1.6-3.6,3.6-3.6s3.6,1.6,3.6,3.6v75.7c0,2-1.6,3.6-3.6,3.6Z"/><path d="M129.7,143.3c-1.6,0-3.1-1.1-3.5-2.7l-19.6-73.1c-.5-1.9.6-3.9,2.6-4.5,1.9-.5,3.9.6,4.5,2.6l19.6,73.1c.5,1.9-.6,3.9-2.6,4.5-.4,0-.7.1-1,.1Z"/><path d="M183.4,143.3c-.3,0-.6,0-.9-.1-1.9-.5-3.1-2.5-2.6-4.5l18.2-68c.5-1.9,2.5-3.1,4.5-2.6,1.9.5,3.1,2.5,2.6,4.5l-18.2,68c-.5,1.6-2,2.7-3.6,2.7Z"/><path d="M241.7,89.3c-21.2,0-38.5-17.3-38.5-38.5s17.3-38.5,38.5-38.5,38.5,17.3,38.5,38.5-17.3,38.5-38.5,38.5ZM241.7,19.6c-17.2,0-31.3,14-31.3,31.3s14,31.3,31.3,31.3,31.3-14,31.3-31.3-14.1-31.3-31.3-31.3Z" fill="#b06b54"/><path d="M226.7,69.4c-.9,0-1.9-.4-2.6-1.1-1.4-1.4-1.4-3.7,0-5.1l29.9-29.9c1.4-1.4,3.7-1.4,5.1,0s1.4,3.7,0,5.1l-29.9,29.9c-.6.8-1.5,1.1-2.5,1.1Z" fill="#b06b54"/><path d="M256.7,69.4c-.9,0-1.9-.4-2.6-1.1l-29.9-29.9c-1.4-1.4-1.4-3.7,0-5.1,1.4-1.4,3.7-1.4,5.1,0l29.9,29.9c1.4,1.4,1.4,3.7,0,5.1-.7.8-1.6,1.1-2.5,1.1Z" fill="#b06b54"/></svg>