<?xml version="1.0" encoding="UTF-8"?><svg id="b" xmlns="http://www.w3.org/2000/svg" viewBox="0 0 132.36 134.19"><g id="c"><path d="M8.12,134.19c-3.12-.81-5.31-2.92-5.74-6.19-.8-11.87.97-24.95-.02-36.67-.49-5.84-5.7-12.63,2.93-15.92l47.24-12.52c4.36-.02,6.21,2.45,7.4,6.25.41,1.31,1.81,6.17,1.6,7.2-.07.32-.26.61-.46.86l-41.94,11.65h43.11c.06,0,.85.52.94.64l.24,38.81c-.41,3-2.72,5.04-5.5,5.89H8.12ZM52.62,66.63c-1.33.1-5.97,1.5-7.45,2-.33.11-.65.07-.87.43l7.85,6.58c.56.17,4.55-.74,4.99-1.08.32-.24.2-.35.15-.66-.16-1.07-1.18-4.82-1.68-5.68-.6-1.04-1.77-1.69-2.99-1.6ZM28.57,73.13l8.05,6.77,11.07-2.97-8-6.69-11.12,2.89ZM32.23,80.99l-8.27-6.56-11.12,2.89,8.27,6.82c3.42-.94,7.27-1.6,10.6-2.76.25-.09.6-.03.52-.38ZM16.51,85.44l-7.85-6.7c-6.86-.16-3.9,5.41-3.15,9.59l11-2.89ZM17.56,92.52H6.29v8.91h5.11l6.16-8.91ZM33.54,92.52h-11.4l-6.16,8.91h11.79l5.77-8.91ZM49.79,92.52h-11.4l-6.16,8.91h11.4c1.8-2.24,3.45-4.62,5.06-6.99.19-.28,1.29-1.75,1.1-1.92ZM59.75,92.52h-5.11l-6.16,8.91h11.27v-8.91ZM59.75,105.1H6.29v23.45c0,.8,2.62,2.24,3.53,1.97h46.4c1.21.18,3.53-1.31,3.53-2.5v-22.93Z"/><path d="M107.18,134.19h-31.97c-3.15-.84-5.63-3.19-6.27-6.44l-.02-31.43c.52-3.46,3.44-6.34,6.95-6.68,9.81.55,20.43-.74,30.15-.01,4.17.31,7.11,3.32,7.47,7.47.83,9.6-.61,20.39-.04,30.12-.5,3.59-2.89,5.92-6.26,6.97ZM76.19,93.37c-1.98.51-3.37,1.61-3.6,3.74.63,9.47-.84,20.02,0,29.36.23,2.55,1.83,3.85,4.33,4.06,9.15-.61,19.28.78,28.32,0,2.24-.19,4.1-1.11,4.33-3.53.9-9.63-.7-20.64,0-30.42-.43-2.27-2.16-3.09-4.32-3.28-9.24-.8-19.67.56-29.04.07Z"/><path d="M78.04,80.78c-.33-.19-1.29.01-1.85-.11-2.59-.58-4.18-2.89-3.84-5.55.11-.82.8-1.68.76-2.36-.04-.55-.6-1.25-.72-1.92-.29-1.66.18-3.08,1.17-4.39-7.85-10.47-13.91-21.71-6.61-34.47,10.47-18.29,37.93-15.39,44.43,4.58,3.73,11.46-2.05,20.85-8.56,29.75.27,1.16,1,1.8,1.09,3.14s-.91,3.04-.87,3.51c.03.38.5.81.6,1.22.7,2.88-.27,5.52-3.32,6.37-.66.18-1.64.07-2.05.31-.28.16-1.18,1.88-1.58,2.35-1.06,1.28-2.32,2.3-4.06,2.5s-8.41.24-9.84-.12c-.63-.16-2.28-1.21-2.75-1.7s-1.85-3.01-2.01-3.1ZM99.27,64.94c5.97-8.63,12.37-17.04,8.19-28.12-6.09-16.12-28.57-18.05-37.18-3.1-6.8,11.81-.19,21.77,6.95,31.23h22.05ZM76.32,70.7c.29.29.96.3,1.37.34,6.71.56,14.19-.45,20.98,0,1.79.03,2.1-2.13.27-2.38-6.56-.87-15.01.68-21.78,0-1.1-.11-1.55,1.33-.84,2.05ZM76.65,74.7c-.8.37-.73,2.1,0,2.1h23.06c.68,0,.4-2.1-.26-2.1h-22.8ZM93.82,80.73h-11.27c.34.64.99,1.18,1.72,1.3,1.39.22,7.41.17,8.52-.36.39-.19.89-.5,1.03-.93Z"/><path d="M5.96,23.93c8.66.59,18.98-1.03,27.45-.07,2.83.32,5.58,3.09,5.9,5.9.96,8.44-.72,18.63,0,27.26-.59,3.28-3.1,5.62-6.41,5.9-8.37.72-17.75-.57-26.23,0-3.51-.37-6.06-2.92-6.41-6.43-.82-8.33.59-17.97.03-26.44.39-3.08,2.6-5.54,5.67-6.12ZM6.75,27.59c-2.04.37-2.63,1.85-2.81,3.74.49,7.71-.67,16.24-.01,23.85.25,2.9,1.18,3.85,4.06,4.06,7.79.57,16.26-.46,24.13,0,2.05-.11,3.34-1.21,3.54-3.27.78-8.02-.61-17.29,0-25.44-.19-1.6-1.44-2.82-3.01-3.01l-25.89.07Z"/><path d="M121.54,42.27c1.76-.26,7.06-.29,8.78,0,2.83.47,2.53,3.51.31,3.85-1.33.21-8.42.23-9.62-.04-1.99-.44-2.24-3.39.54-3.81Z"/><path d="M117.86,12.37c.96-.14,2.26,1.2,2.12,2.12-.05.33-.42.92-.63,1.22-.44.64-6.06,6.27-6.57,6.53-2.13,1.11-3.85-.82-2.58-2.84.54-.86,5.19-5.44,6.14-6.18.38-.3,1.06-.8,1.51-.87Z"/><path d="M56.27,45.54c-.24.26-1.23.55-1.63.6-1.75.19-7.24.24-8.9-.02-2.33-.37-2.66-3.5.54-3.89,1.8-.22,6.57-.25,8.33,0,1.6.23,2.95,1.92,1.66,3.32Z"/><path d="M58.09,12.41c.56-.03.99.26,1.41.57.85.62,6,5.74,6.54,6.56,1.24,1.86-.54,3.92-2.61,2.61-.62-.39-6.28-6.06-6.68-6.68-.83-1.3-.24-2.97,1.34-3.06Z"/><path d="M87.72.06c1.28-.26,2.02.39,2.17,1.65.22,1.86.26,7.91-.02,9.68-.34,2.17-3.38,1.91-3.66-.5-.21-1.78-.24-7.46.02-9.16.12-.76.71-1.52,1.49-1.67Z"/><path d="M26.92,108.55c.52-.16,1.09-.09,1.58.15,3.98,2.88,9.36,4.87,13.27,7.7,1.64,1.19,1.13,2.52-.27,3.58-2.48,1.88-9.03,5.49-11.96,6.9-1.85.89-3.61,1.59-3.86-1.21-.44-4.93.36-10.49,0-15.49-.05-.56.77-1.49,1.25-1.64ZM29.35,122.66l7.59-4.59-7.59-4.32v8.91Z"/><path d="M89.89,98.94c.18-1.06,1.26-1.87,2.36-1.59l9.16,5.28c1.09,1.24.21,3.16-1.43,3.15-1.37-.01-4.71-2.69-6.16-3.29v16.64c0,7.03-8.22,10.22-12.17,4.57s2.09-12.4,8.24-9.94v-14.81ZM87.14,117.02c-4.09,0-3.85,6.49.73,5.57,3-.6,2.61-5.57-.73-5.57Z"/><path d="M81.16,35.71c.64-.19,1.43-.08,2.02.23,4.93,3.19,10.3,5.72,15.27,8.84,1.71,1.07,4.16,2.21,1.9,4.35-5.56,2.84-11.01,6.92-16.58,9.63-1.67.81-3.55,1.34-3.85-1.22-.71-6.15.55-13.63,0-19.93-.02-.65.62-1.72,1.24-1.91ZM83.86,54.26l11.53-6.68-11.53-6.68v13.37Z"/><path d="M18.81,33.1c12.58-1.31,15.68,17.17,3.74,20.25-14.35,3.7-18.21-18.75-3.74-20.25ZM18.28,37.02c-6.64,1.12-6.4,11.84.22,12.76,10.55,1.46,10.42-14.54-.22-12.76Z"/></g></svg>