<?xml version="1.0" encoding="UTF-8"?><svg id="b" xmlns="http://www.w3.org/2000/svg" viewBox="0 0 98 116.22"><g id="c"><path d="M1.27,111.26c-.4-.18-.91-1.16-1-1.94-.51-4.59-.35-18.42.93-22.22,1.46-4.35,5.26-8.18,9.67-9.77l24.12-6.81-.07-8.54-.38-.3c-3.6-2.85-5.88-6.99-6.77-12.31l-.12-.71-.71-.11c-.99-.16-2.8-.65-3.75-2.13-.73-1.15-1.96-7.6-2.02-9.63-.07-2.04.82-3.75,2.52-4.83l.67-.42-.25-.75c-2.74-8.04,1.34-20.73,8.25-25.63.82-.58,1.06-.58,1.15-.58s.17.01.26.02c.18.02.38.04.61.04.26,0,.53-.03.81-.08.39-.08.89-.37,2.53-1.41.71-.45,1.52-.96,1.86-1.12,2.79-1.32,6.5-2.05,10.43-2.05,6.05,0,11.59,1.72,14.81,4.59.6.54.68.8.8,1.23.09.33.21.75.53,1.25.21.33.6.66,1.26,1.21.39.32.83.68,1.02.9,5.69,6.48,7.67,14.37,5.43,21.66l-.22.72.64.41c1.84,1.19,2.65,2.9,2.48,5.25-.17,2.28-1.24,8.17-2.05,9.34-.69,1.01-2.03,1.74-3.68,2l-.69.11-.13.68c-.67,3.44-1.6,6-2.91,8.06-.92,1.45-2.18,2.75-3.39,4-.73.75-1.48,1.53-2.16,2.34-1.42,1.7-2.03,3.25-2.01,5.21l-.15.05v-4.9l-1.45.74c-2.96,1.51-6.03,2.27-9.14,2.27s-6.19-.76-9.14-2.27l-1.45-.74v7.42c0,.9-2.2,2.82-3.51,2.83l-2.19-.21,1.22,1.78c3.34,4.62,8.98,7.38,15.09,7.38,2.04,0,4.08-.31,6.02-.91-.24.68-.41,1.4-.55,2.18-1.78.45-3.61.67-5.45.67-5.08,0-9.93-1.73-13.65-4.88-.67-.57-1.27-1.25-1.9-1.97-.81-.92-1.64-1.87-2.66-2.59l-.41-.29-.48.16c-2.79.93-5.73,1.67-8.57,2.38-2.58.64-5.25,1.31-7.83,2.13-4.21,1.33-6.8,3.41-8.4,6.74-.01.02-1.16,2.6-1.16,3.32v17.61h59.56v3.41H1.27ZM26.88,34.57c-.27,0-1,0-1.53.6-.83.94-.51,2.79.07,5.74.22,1.11.47,2.36.43,2.83l-.1,1.08h1.2c2.4.03,3.04.03,3.7,1.86.39,1.1.66,2.16.91,3.19.59,2.39,1.15,4.64,3.14,7.02,2.27,2.71,8.73,6.23,12.12,6.61.49.05,1,.08,1.52.08,5.84,0,13.9-3.6,16.74-9.42.56-1.14.97-2.81,1.36-4.43.4-1.64.86-3.5,1.35-4.16.36-.47.72-.5,1.57-.5.62,0,1.39-.01,2.17-.38l.48-.23,1.31-8.56-.29-.35c-.73-.88-1.56-.99-2.19-.99h-.44c-.33,0-.56-.02-.88-.33-.48-.48-1.49-2.17-2.3-3.54-1.46-2.46-2.11-3.5-2.71-3.86l-.33-.2-.38.08c-1.47.29-2.96.44-4.41.44-5.17,0-10.26-1.85-15.15-5.51l-.2-.15-.32-.05h-.14c-.72,0-1.34.5-1.99,1.04-.24.2-.49.4-.65.49-2.35,1.35-4.6,1.68-7.24,1.76l-.6.02-4.76,9.61c-.18.16-.39.22-.74.22-.12,0-.23,0-.34-.01-.13,0-.26-.01-.38-.01ZM64.59,24.42c.92,0,1.59,1.02,2.51,2.58.56.96,1.15,1.95,1.93,2.59l1.18.97.42-1.47c1.59-5.61-.04-12.1-4.26-16.93-.49-.56-1.23-1.18-1.94-1.77-.72-.6-1.54-1.28-1.79-1.67-.09-.14-.15-.34-.22-.57-.11-.38-.25-.85-.62-1.26-2.5-2.84-10.74-3.48-13.43-3.48-.49,0-.93.02-1.3.04-3.87.3-6.25,1.94-8.56,3.52-1.08.74-2.19,1.5-3.48,2.15-.34.17-.88.23-1.28.27-.42.04-.71.08-.99.23-.99.56-3.47,4.91-3.58,5.14-1.8,3.67-2.65,7.97-2.34,11.81.05.61.17,2.15,1.39,2.27l.67.07.31-.59c.19-.35.45-.97.79-1.74.52-1.18,1.59-3.64,2.01-4.05.05-.03.25-.1.66-.1s.86.06,1.34.13c.51.07,1.04.14,1.54.14.12,0,.23,0,.35-.01,1.78-.14,3.83-1.13,5.06-2.06.51-.38.89-.79,1.2-1.12.52-.55.69-.7.94-.7.17,0,.5.06,1.08.37,1.36.71,2.51,1.48,3.61,2.23,2.58,1.74,5.01,3.38,9.37,3.73.42.03.81.05,1.18.05,1.4,0,2.55-.21,3.66-.41.82-.15,1.6-.29,2.48-.36h.1Z"/><path d="M92.71,81.58c2.35,2.91,1.76,6.93-2.07,7.98-.59.16-1.35-.14-1.81.41-.33.39.11,2.14.03,2.97-.19,1.81-1.51,2.87-2.96,3.74v17.19c-1.04,6.13-7.08-1.74-9.72-2.76l-6.58,4.9c-1.07.43-2.46.26-2.91-.9l-.22-18.19c-1.79-.62-3.49-1.95-3.7-3.98-.09-.83.35-2.58.03-2.97-1.15-.59-2.13-.23-3.35-1.09-2.37-1.66-2.53-4.79-.82-6.98.36-.46,1.21-.7,1.2-1.27-1.54-1.85-2.99-3.44-2.1-6.03s2.84-2.99,5.19-3.43c-.09-2.1-.58-3.68.98-5.42,1.05-1.17,2.83-1.69,4.36-1.43.98.16,1.84,1.19,2.73.89.46-.15,1-1.82,1.48-2.34,1.09-1.17,2.87-1.52,4.41-1.26,2.51.43,3.21,3.41,3.79,3.6.87.29,1.29-.42,1.98-.66,1.8-.62,3.8-.21,5.09,1.2,1.58,1.73,1.08,3.3.99,5.41,2.9.35,5.47,1.77,5.42,5.03-.03,2.12-1.23,2.89-2.34,4.43,0,.61.67.65.91.95ZM90.06,85.65c.58-1.23-1.21-1.83-1.75-3-.68-1.49-.58-3.12.25-4.53.32-.55,1.75-1.69,1.67-2.05-.23-1.04-1.24-.59-1.93-.79-1.92-.54-3.42-1.96-3.6-4.03-.07-.82.55-2.82-.17-3.04-.75-.04-1.19.58-1.87.8-2.57.85-4.4-.04-5.82-2.21-.32-.49-.79-2.4-1.72-.89s-.85,2.42-2.8,3.1c-2.1.74-3.33-.08-5.22-.8-.73.22-.1,2.21-.17,3.04-.19,2.07-1.69,3.49-3.6,4.03-.69.2-1.7-.26-1.93.79-.08.36,1.35,1.5,1.67,2.05,1.23,2.1.77,3.95-.63,5.75-.34.44-1.42.64-.92,1.66,2.52.14,5.09,1.48,5.42,4.23.09.8-.48,2.77-.08,3.07,1.1.27,1.98-.84,3.2-.99,1.7-.21,3.39.62,4.39,1.96.34.45.81,2.06,1.47,1.94,1.44-2.12,2.65-4.27,5.66-3.91,1.27.15,2.19,1.36,3.32.94.13-1.06-.33-1.93-.2-3.03.31-2.58,2.87-4.27,5.37-4.11ZM81.97,110.29v-13.91s-.38-.44-.49-.49c-1.3-.63-1.28.98-1.86,1.83-1.77,2.6-6,2.48-7.7-.15-.48-.75-.41-2.01-1.52-1.81v14.52c1.6-.62,4.2-3.72,5.78-3.72,1.68,0,4.13,3.08,5.78,3.72Z"/><path d="M88.88,111.26v-3.41h5.17v-16.75c.15-.15.37-.35.53-.51.5-.47.82-.77.98-.98.63-.82,1.02-1.61,1.25-2.39.49,1.57.81,3.34.91,5.03.28,4.57.46,12.89,0,17.07-.07.61-.61,1.72-.93,1.94h-7.91Z"/><path d="M74.04,70.97c13.99-1.9,15.4,18.3,2.61,19.35-12.72,1.04-14.07-17.79-2.61-19.35ZM74.52,74.91c-6.69,1.14-5.6,12.2,1.88,11.48s6.57-12.92-1.88-11.48Z"/></g></svg>