<?xml version="1.0" encoding="UTF-8"?><svg id="b" xmlns="http://www.w3.org/2000/svg" viewBox="0 0 117.29 117.23"><g id="c"><path d="M114.34,71.81c1.11.18,2.53,1.53,2.79,2.64l.16,39.33c-.2,1.99-1.88,3.5-3.89,3.44l-112.39-.19-.83-.83-.19-41.45c1.21-15.49,22.43-12.75,33.41-15.79.2-.06.6-.06.66-.32l-.05-4.41c-5.64-3.7-9.49-9.55-9.42-16.47-9.13,1.33-10.48-11.27-1.18-11.35-3.21-5.23-4.75-11.25-.48-16.44,2.26-2.75,3.78-2.66,6.47-4.17,1.79-1,3.41-2.77,5.43-3.79,7.94-3.99,16.13-1.52,23.34,2.76,7.65,4.54,9.55,14.03,5.2,21.64,9.43-.24,8.38,12.67-.95,11.35.05,6.92-3.78,12.77-9.42,16.47v4.54s20.43,3.48,20.43,3.48c.99-.93,2.14-1.65,3.53-1.8,6.33-.68,13.86.5,20.32.02,1.81.02,4.87,2.88,4.87,4.59v6.74h12.18ZM61.01,22.63c2.19-5.49.34-11.5-4.72-14.55-2.21-1.33-7.17-3.6-9.65-4.07-3.85-.73-7.5.06-10.93,1.83.85.79,2.16,1.07,3.15,1.69.84.53,4.32,3.67,4.15,4.54l-2.73,2.01c-.5.08-1.5-1.78-1.96-2.23-3.79-3.7-10.49-3.24-13.14,1.54-1.92,3.46-1.03,6.15.6,9.46.55.12.38-.07.53-.3.75-1.16,2.03-4.97,3.08-5.43,1.82-.79,3.91,1.8,5.4,2.76,6.29,4.04,12.05,3.46,18.12-.52,1.49-.98,3.7-3.73,5.38-1.7.29.36,2.4,5.21,2.73,4.96ZM56.28,21.93c-.34-.23-3.38,2.05-4.08,2.4-5.15,2.6-11.29,2.78-16.56.4-1.51-.68-2.96-2.11-4.18-2.68-.24-.11-.43-.18-.69-.11-.32,1.57-2.13,3.63-2.36,5.09-.46,2.92-.2,12.38.63,15.18,4.24,14.33,25.14,14.11,29.08-.36.73-2.67.96-12.05.53-14.82-.23-1.46-2.04-3.52-2.36-5.09ZM24.6,30.2c-5.13-.91-5.13,4.69,0,3.78v-3.78ZM62.43,33.98c5.13.91,5.13-4.69,0-3.78v3.78ZM49.19,55.73c-3.63,1.28-7.74,1.27-11.35,0v3.9c0,.4,5.07,4.93,5.76,5.54l5.59-5.54v-3.9ZM71.89,65.9l-19.52-3.32c-1.24-.04-1.91,1.45-2.82,2.13-.21.49,1.69,4.29,1.53,5.54s-3.51,4.83-3.49,5.65l3.38,8.44.1,1.03-5.72,24.8c-.54,1.84-3.1,1.87-3.66,0-1.75-8.62-4.38-17.19-5.62-25.83l3.38-8.44c.01-.78-3.2-4.3-3.45-5.45-.32-1.44,1.26-4.1,1.53-5.63-.87-.8-1.72-2.47-3.07-2.22-7.44,1.67-15.52,2.12-22.9,3.83-3.49.81-7.76,4.21-7.76,8.09v38.9h15.13v-32.16h3.78v32.16h34.05v-38.66c0-.95,2.02-2.96,2.96-2.96h12.18v-5.91ZM98.38,71.81v-6.27c0-.28-1.02-1.3-1.3-1.3h-16.67l3.3,2.73c1.12,1.45,2.19,3.01,2.61,4.84h12.06ZM82.3,71.81c-1.17-2.61-3.74-4.87-6.62-5.2v5.2h6.62ZM46.59,67.79c-2.53,2.77-3.61,2.77-6.14,0,.09.64-.56,1.37-.43,1.95.05.23,2.36,3.72,2.56,3.84.44.26,1.6.23,2.01-.12.17-.14,2.39-3.5,2.44-3.72.12-.58-.52-1.31-.43-1.95ZM113.51,75.6h-52.97v6.98c0,3.33,4.84,8.16,8.16,8.16h12.65v-6.27c0-.49,1.02-1.2,1.55-1.29,1.58-.25,6.12-.18,7.8-.03.68.06,2,.53,2,1.31v6.27h12.65c3.35,0,8.16-4.82,8.16-8.16v-6.98ZM44.19,77.52h-1.35l-3,7.65,3.44,15.5c.61.07.38,0,.48-.35,1.43-4.84,2.11-10.24,3.43-15.15l-3-7.65ZM88.92,86.95h-3.78v10.05c0,1.65,3.78,1.65,3.78,0v-10.05ZM60.54,90.73v15.13h52.97v-15.13c-1.06.58-1.75,1.4-2.83,2.01-5.32,3.02-12.11,1.34-17.98,1.77,1.14,10.03-12.49,10.04-11.35,0-5.68-.43-12.3,1.17-17.5-1.53l-3.31-2.25ZM113.51,109.65h-52.97v3.78h52.97v-3.78Z"/></g></svg>