<?xml version="1.0" encoding="UTF-8"?><svg id="b" xmlns="http://www.w3.org/2000/svg" viewBox="0 0 123.69 111.08"><g id="c"><path d="M104.53,47.44v5.47c1.36-.89,2.45-.98,3.98-.37,2.91,1.16,8.61,4.84,11.51,6.64,1.9,1.18,3.19,1.5,3.42,4.04.33,3.75.36,11.46,0,15.18-.13,1.36-.75,2.13-1.77,2.95-4.33,1.92-8.98,5.91-13.23,7.64-1.62.66-2.35.27-3.9-.3v6.21h3.85c.39,0,2.51.99,2.94,1.28,6.34,4.29,3.67,14.21-3.97,14.84l-97.17.04c-7.74.02-11.18-10.07-4.92-14.63.52-.38,2.71-1.53,3.19-1.53h5.47l.34-46.82c-.16-.47-3.06-.95-3.76-1.21C2.23,43.87-1.27,34.69.41,26.47L22.32.9c4.78-.41,9.67-.1,14.49-.18,14.22-.22,28.5-.13,42.75-.25,4.88-.04,10.29-.84,15.16-.27.49.06.88.2,1.29.45,6.14,7.82,12.71,15.37,18.7,23.31.63.84,2.02,2.37,2.19,3.28.44,2.39.03,6.59-.62,8.95-1.56,5.64-6.16,9.77-11.75,11.24ZM110.74,25.57l-16.91-21.25-15.9.12c1.41,7.55,4.33,15.23,9.32,21.13h23.49ZM29.46,25.57c3.87-5.38,6.7-11.4,8.38-17.84.17-.66.7-2.25.72-2.77.03-.89-1.15-.27-1.76-.25-4.27.08-8.55-.18-12.81.11L6.59,25.57h22.87ZM34.43,25.57h47.72c-4.24-6.32-6.8-13.57-8.42-20.98l-31.07-.12c-1.19,6.09-3.19,11.92-6.11,17.38-.23.44-2.29,3.58-2.12,3.72ZM28.22,29.54H4.11v3.85c0,5.46,6.61,10.48,11.8,10.58s12.31-4.72,12.31-10.33v-4.1ZM56.31,29.54h-24.11c-1.62,12.52,13.87,19.9,21.83,9.53.72-.93,2.28-3.85,2.28-4.93v-4.6ZM84.64,29.54h-24.11v4.6c0,2.12,2.84,5.89,4.49,7.19,8.96,7.03,21.03-.92,19.62-11.79ZM112.98,29.54h-24.36v4.1c0,5.57,7.08,10.43,12.31,10.33,5.23-.1,12.05-5.32,12.05-10.83v-3.6ZM18.28,47.69v47.23h16.78c.69-.98.29-2.51.44-3.78.9-7.52,7.97-13.85,15.45-14.37,5.66-.4,16.8-.64,21.68,1.95,5.89,3.13,9.11,9.62,9.03,16.2h18.89v-8.58l-9.08-5.34-.92-1.31-.08-17.84c2.44-3.01,6.75-4.46,10.04-6.49l.04-7.42c-5.9-.09-10.95-3.34-14.04-8.2-6.22,10.87-21.82,10.79-28.09,0-6.27,10.79-21.87,10.86-28.09,0-2.73,4.22-6.92,7.49-12.06,7.95ZM106.89,56.23l-10.31,6,10.81,5.58c2.95-1.76,6.3-3.1,9.15-5,.27-.18.9-.53.41-.82l-10.06-5.76ZM94.34,65.83v12.43l10.69,5.97c-.3-3.96.72-8.41.27-12.32-.04-.36-.02-.65-.41-.83l-10.54-5.25ZM119.44,65.83l-10.14,5.52c.14,4.22-.47,8.42-.18,12.62l10.32-6.09v-12.06ZM72.59,94.91h4.72c.5,0,.18-2.82.1-3.33-.75-4.61-4.56-9.06-9.06-10.33-3.37-.95-13.1-.79-16.9-.52-7.2.5-12.8,6.96-12.04,14.18h5.22c-.44-3.76,4.42-3.75,3.98,0h19.5c.32-.04-.24-2.65,2-2.76,2.8-.14,1.76,2.53,2.49,2.76ZM9.01,98.95c-4.35,1.59-3.89,7.6.94,8.15h96.94c5.05-.57,5.43-7.32.5-8.2l-98.37.06Z"/><path d="M56.75,47.26c19.05-2.05,21.23,26.61,2.91,28.01s-20.63-26.1-2.91-28.01ZM56.99,51.23c-12.65,1.6-10.68,21.48,2.64,20.04,12.96-1.4,11.04-21.78-2.64-20.04Z"/></g></svg>