<svg xmlns="http://www.w3.org/2000/svg" fill="none" viewBox="0 0 30 30" height="30" width="30">
<path stroke-linejoin="round" stroke-linecap="round" stroke-width="1.25" stroke="black" d="M15 21.25C16.3807 21.25 17.5 20.1307 17.5 18.75C17.5 17.3693 16.3807 16.25 15 16.25C13.6193 16.25 12.5 17.3693 12.5 18.75C12.5 20.1307 13.6193 21.25 15 21.25Z" clip-rule="evenodd" fill-rule="evenodd"></path>
<path stroke-linejoin="round" stroke-linecap="round" stroke-width="1.25" stroke="black" d="M20 10H26.25V27.5H3.75V10H10M20 10C20 10 20 9.5 20 7.5C20 5 18.125 2.5 15 2.5C11.875 2.5 10 5 10 7.5C10 9.5 10 10 10 10M20 10H10"></path>
</svg>
